<svg width="288" height="58" viewBox="0 0 288 58" fill="none" xmlns="http://www.w3.org/2000/svg">
<rect width="288" height="58" rx="16" fill="#DDDDDD"/>
<path d="M134.19 21.814C134.856 21.778 135.234 21.778 135.306 21.778C135.558 21.796 135.792 21.85 136.026 21.958C136.17 22.048 136.242 22.192 136.278 22.39C136.296 22.588 136.314 22.786 136.314 23.002C136.314 23.146 136.296 23.308 136.296 23.452C136.26 23.902 135.99 24.244 135.486 24.46C135.432 24.478 135.108 24.658 134.532 24.982C135.234 26.17 135.612 26.8 135.666 26.89C135.9 27.304 135.954 27.88 135.846 28.618C135.81 28.726 135.684 28.852 135.468 29.032C135.234 29.212 135.072 29.302 134.964 29.302C134.838 29.302 134.694 29.248 134.532 29.104C134.37 28.96 134.262 28.816 134.208 28.654C134.172 28.564 134.082 28.42 133.938 28.24C133.794 28.06 133.704 27.916 133.668 27.826C133.614 27.718 133.452 27.592 133.164 27.412C132.876 27.25 132.678 27.178 132.606 27.214C132.57 27.232 132.498 27.268 132.372 27.304C132.228 27.358 132.138 27.412 132.066 27.448C131.994 27.484 131.886 27.556 131.76 27.646C131.616 27.754 131.508 27.862 131.4 27.97C130.914 28.51 130.554 28.924 130.302 29.194C130.122 29.374 129.816 29.374 129.366 29.158C128.898 28.96 128.52 28.726 128.232 28.474C128.088 28.366 128.016 28.204 128.016 27.97C128.016 27.736 128.052 27.502 128.16 27.286C128.16 27.286 128.304 27.142 128.556 26.836L128.952 26.386C129.168 26.206 129.474 25.99 129.888 25.72C130.284 25.468 130.608 25.234 130.842 25.036C130.896 24.964 130.896 24.892 130.842 24.82C130.77 24.748 130.698 24.694 130.59 24.658C130.518 24.64 130.32 24.586 130.014 24.478C129.69 24.37 129.456 24.298 129.294 24.244C128.628 24.028 128.34 23.668 128.448 23.2C128.448 23.164 128.466 23.056 128.502 22.912C128.538 22.768 128.574 22.642 128.574 22.552C128.574 22.48 128.61 22.408 128.646 22.336C128.682 22.282 128.718 22.246 128.754 22.21C128.79 22.174 128.862 22.156 128.952 22.138L129.132 22.12C129.168 22.12 129.258 22.102 129.366 22.102H129.6C129.672 22.102 129.798 22.102 129.96 22.102C130.104 22.12 130.23 22.12 130.338 22.12C130.446 22.12 130.536 22.084 130.626 22.012C130.806 21.904 130.914 21.508 130.968 20.842C130.968 20.536 131.076 20.32 131.256 20.194C131.436 20.068 131.67 19.978 131.958 19.942C132.606 19.87 133.11 19.906 133.47 20.086C133.722 20.23 133.884 20.428 133.956 20.698C133.974 20.842 134.01 21.058 134.082 21.328C134.136 21.616 134.172 21.778 134.19 21.814ZM142.704 22.012C142.632 22.372 142.578 23.2 142.542 24.496C142.506 25.792 142.506 26.638 142.542 27.016C142.578 27.484 142.56 28.816 142.488 31.03C142.416 33.244 142.344 34.558 142.272 34.954C142.2 35.332 142.056 35.656 141.858 35.908C141.516 36.34 140.904 36.538 140.004 36.502C139.986 36.502 139.968 36.502 139.968 36.502V36.484C139.896 36.484 139.824 36.466 139.734 36.466C139.626 36.466 139.572 36.448 139.536 36.448L139.41 36.412C139.338 36.412 139.302 36.394 139.302 36.376C139.284 36.358 139.266 36.34 139.248 36.304C139.212 36.286 139.194 36.25 139.194 36.196L139.176 36.034C139.176 35.98 139.176 35.908 139.176 35.8C139.158 35.62 139.212 34.306 139.32 31.858C139.428 29.41 139.446 27.988 139.392 27.556C139.302 26.98 139.23 25.936 139.176 24.424C139.104 22.93 139.122 21.868 139.212 21.256C139.248 21.04 139.392 20.842 139.644 20.698C139.896 20.554 140.202 20.482 140.526 20.482C140.67 20.482 140.904 20.464 141.264 20.428C141.498 20.392 141.696 20.374 141.876 20.374C142.056 20.374 142.2 20.446 142.326 20.554C142.434 20.68 142.524 20.878 142.596 21.13C142.596 21.166 142.632 21.454 142.704 22.012ZM129.924 29.86C131.634 29.77 132.57 29.716 132.714 29.698C135.486 29.662 137.25 29.68 138.024 29.77C138.168 29.77 138.294 29.77 138.402 29.788C138.51 29.806 138.582 29.86 138.654 29.932C138.726 30.022 138.78 30.094 138.816 30.166C138.852 30.238 138.87 30.346 138.888 30.508C138.888 30.67 138.906 30.796 138.906 30.886V31.354V31.822C138.852 32.002 138.564 32.074 138.042 32.074C137.502 32.074 136.926 32.056 136.278 31.984C135.63 31.93 135.234 31.912 135.09 31.93C135 31.948 134.73 32.02 134.262 32.146C134.154 32.182 134.064 32.236 133.992 32.308C133.92 32.398 133.848 32.524 133.812 32.668C133.776 32.812 133.74 32.938 133.722 33.028C133.704 33.136 133.686 33.262 133.686 33.424C133.668 33.46 133.65 33.604 133.632 33.82C133.614 34.036 133.596 34.252 133.578 34.432C133.542 34.612 133.524 34.81 133.488 34.99C133.452 35.188 133.434 35.314 133.416 35.386C133.308 35.638 133.11 35.818 132.822 35.926C132.534 36.034 132.228 36.052 131.922 35.98C131.49 35.872 131.256 35.53 131.22 34.936C131.202 34.864 131.184 34.504 131.148 33.82C131.112 33.136 131.094 32.704 131.076 32.506C131.04 32.362 131.004 32.254 130.932 32.182C130.86 32.11 130.752 32.11 130.572 32.146C130.356 32.2 129.312 32.236 127.404 32.236C127.224 32.236 127.044 32.164 126.9 32.02C126.738 31.876 126.666 31.714 126.666 31.534C126.666 31.498 126.648 31.372 126.648 31.192C126.648 31.012 126.648 30.886 126.648 30.796C126.648 30.724 126.684 30.616 126.738 30.49C126.774 30.364 126.846 30.256 126.936 30.148C127.08 30.022 127.512 29.932 128.25 29.878C128.97 29.842 129.528 29.824 129.924 29.86ZM160.956 33.802C160.938 33.946 160.938 34.144 160.974 34.36C161.01 34.594 161.01 34.81 161.01 35.008C161.01 35.206 160.956 35.386 160.884 35.548C160.74 35.818 160.596 35.98 160.416 36.016C160.2 36.07 159.948 36.124 159.624 36.16C159.3 36.214 159.012 36.25 158.778 36.268C158.544 36.286 158.436 36.286 158.436 36.268H148.932C148.608 36.286 148.122 36.304 147.474 36.322C146.826 36.34 146.34 36.34 146.016 36.34C145.656 36.358 145.314 36.286 144.99 36.124L144.756 34.738L144.99 34.054C145.062 33.838 145.206 33.73 145.422 33.712L146.862 33.568C148.302 33.568 149.85 33.532 151.488 33.496C151.344 33.352 151.272 33.19 151.272 33.046C151.236 32.83 151.218 32.524 151.218 32.128C151.2 31.732 151.182 31.444 151.182 31.3C151.182 31.156 151.2 31.048 151.254 30.976C151.29 30.904 151.398 30.868 151.56 30.868C151.74 30.886 152.082 30.886 152.55 30.886C153.018 30.886 153.342 30.868 153.54 30.868C153.918 30.886 154.17 30.976 154.314 31.156C154.458 31.336 154.566 31.678 154.656 32.182C154.71 32.56 154.62 32.974 154.386 33.442C156.33 33.406 157.608 33.37 158.184 33.334C158.886 33.316 159.444 33.316 159.84 33.352C159.948 33.352 160.272 33.46 160.812 33.64C160.83 33.658 160.866 33.676 160.902 33.712C160.938 33.748 160.956 33.784 160.956 33.802ZM151.2 22.354C152.658 22.246 153.468 22.192 153.648 22.174C153.954 22.174 154.296 22.282 154.656 22.48C154.728 22.534 154.8 22.624 154.872 22.75C154.926 22.876 154.962 22.984 154.962 23.074C154.944 23.902 155.052 24.64 155.268 25.288C155.358 25.612 155.556 25.792 155.844 25.864C156.672 26.098 157.734 26.404 158.994 26.8C159.21 26.872 159.354 26.962 159.444 27.07C159.516 27.178 159.516 27.34 159.426 27.556C159.354 27.7 159.3 27.916 159.264 28.204C159.21 28.492 159.174 28.654 159.156 28.726C159.048 29.158 158.832 29.446 158.544 29.626C158.238 29.806 157.842 29.932 157.374 30.004C157.302 30.022 157.068 30.058 156.708 30.13C156.348 30.202 156.06 30.238 155.88 30.238C155.592 30.238 155.322 30.13 155.034 29.878C154.692 29.608 154.386 29.284 154.116 28.888C153.702 28.312 153.198 27.898 152.586 27.628C152.334 27.52 152.064 27.52 151.74 27.664C151.128 27.952 150.372 28.33 149.508 28.798C149.472 28.834 149.418 28.852 149.364 28.87C149.112 29.014 148.914 29.122 148.77 29.194C148.626 29.266 148.428 29.338 148.194 29.392C147.942 29.464 147.726 29.482 147.51 29.446C147.24 29.446 147.06 29.392 146.97 29.302C146.862 29.23 146.808 29.05 146.772 28.798C146.736 28.564 146.682 28.33 146.61 28.096C146.322 27.214 146.592 26.548 147.438 26.116C149.526 25.072 150.606 24.532 150.696 24.496C150.912 24.388 151.074 24.244 151.146 24.064C151.218 23.884 151.272 23.668 151.29 23.38C151.29 23.344 151.254 23.002 151.2 22.354Z" fill="#818181"/>
<path d="M134.19 23.814C134.856 23.778 135.234 23.778 135.306 23.778C135.558 23.796 135.792 23.85 136.026 23.958C136.17 24.048 136.242 24.192 136.278 24.39C136.296 24.588 136.314 24.786 136.314 25.002C136.314 25.146 136.296 25.308 136.296 25.452C136.26 25.902 135.99 26.244 135.486 26.46C135.432 26.478 135.108 26.658 134.532 26.982C135.234 28.17 135.612 28.8 135.666 28.89C135.9 29.304 135.954 29.88 135.846 30.618C135.81 30.726 135.684 30.852 135.468 31.032C135.234 31.212 135.072 31.302 134.964 31.302C134.838 31.302 134.694 31.248 134.532 31.104C134.37 30.96 134.262 30.816 134.208 30.654C134.172 30.564 134.082 30.42 133.938 30.24C133.794 30.06 133.704 29.916 133.668 29.826C133.614 29.718 133.452 29.592 133.164 29.412C132.876 29.25 132.678 29.178 132.606 29.214C132.57 29.232 132.498 29.268 132.372 29.304C132.228 29.358 132.138 29.412 132.066 29.448C131.994 29.484 131.886 29.556 131.76 29.646C131.616 29.754 131.508 29.862 131.4 29.97C130.914 30.51 130.554 30.924 130.302 31.194C130.122 31.374 129.816 31.374 129.366 31.158C128.898 30.96 128.52 30.726 128.232 30.474C128.088 30.366 128.016 30.204 128.016 29.97C128.016 29.736 128.052 29.502 128.16 29.286C128.16 29.286 128.304 29.142 128.556 28.836L128.952 28.386C129.168 28.206 129.474 27.99 129.888 27.72C130.284 27.468 130.608 27.234 130.842 27.036C130.896 26.964 130.896 26.892 130.842 26.82C130.77 26.748 130.698 26.694 130.59 26.658C130.518 26.64 130.32 26.586 130.014 26.478C129.69 26.37 129.456 26.298 129.294 26.244C128.628 26.028 128.34 25.668 128.448 25.2C128.448 25.164 128.466 25.056 128.502 24.912C128.538 24.768 128.574 24.642 128.574 24.552C128.574 24.48 128.61 24.408 128.646 24.336C128.682 24.282 128.718 24.246 128.754 24.21C128.79 24.174 128.862 24.156 128.952 24.138L129.132 24.12C129.168 24.12 129.258 24.102 129.366 24.102H129.6C129.672 24.102 129.798 24.102 129.96 24.102C130.104 24.12 130.23 24.12 130.338 24.12C130.446 24.12 130.536 24.084 130.626 24.012C130.806 23.904 130.914 23.508 130.968 22.842C130.968 22.536 131.076 22.32 131.256 22.194C131.436 22.068 131.67 21.978 131.958 21.942C132.606 21.87 133.11 21.906 133.47 22.086C133.722 22.23 133.884 22.428 133.956 22.698C133.974 22.842 134.01 23.058 134.082 23.328C134.136 23.616 134.172 23.778 134.19 23.814ZM142.704 24.012C142.632 24.372 142.578 25.2 142.542 26.496C142.506 27.792 142.506 28.638 142.542 29.016C142.578 29.484 142.56 30.816 142.488 33.03C142.416 35.244 142.344 36.558 142.272 36.954C142.2 37.332 142.056 37.656 141.858 37.908C141.516 38.34 140.904 38.538 140.004 38.502C139.986 38.502 139.968 38.502 139.968 38.502V38.484C139.896 38.484 139.824 38.466 139.734 38.466C139.626 38.466 139.572 38.448 139.536 38.448L139.41 38.412C139.338 38.412 139.302 38.394 139.302 38.376C139.284 38.358 139.266 38.34 139.248 38.304C139.212 38.286 139.194 38.25 139.194 38.196L139.176 38.034C139.176 37.98 139.176 37.908 139.176 37.8C139.158 37.62 139.212 36.306 139.32 33.858C139.428 31.41 139.446 29.988 139.392 29.556C139.302 28.98 139.23 27.936 139.176 26.424C139.104 24.93 139.122 23.868 139.212 23.256C139.248 23.04 139.392 22.842 139.644 22.698C139.896 22.554 140.202 22.482 140.526 22.482C140.67 22.482 140.904 22.464 141.264 22.428C141.498 22.392 141.696 22.374 141.876 22.374C142.056 22.374 142.2 22.446 142.326 22.554C142.434 22.68 142.524 22.878 142.596 23.13C142.596 23.166 142.632 23.454 142.704 24.012ZM129.924 31.86C131.634 31.77 132.57 31.716 132.714 31.698C135.486 31.662 137.25 31.68 138.024 31.77C138.168 31.77 138.294 31.77 138.402 31.788C138.51 31.806 138.582 31.86 138.654 31.932C138.726 32.022 138.78 32.094 138.816 32.166C138.852 32.238 138.87 32.346 138.888 32.508C138.888 32.67 138.906 32.796 138.906 32.886V33.354V33.822C138.852 34.002 138.564 34.074 138.042 34.074C137.502 34.074 136.926 34.056 136.278 33.984C135.63 33.93 135.234 33.912 135.09 33.93C135 33.948 134.73 34.02 134.262 34.146C134.154 34.182 134.064 34.236 133.992 34.308C133.92 34.398 133.848 34.524 133.812 34.668C133.776 34.812 133.74 34.938 133.722 35.028C133.704 35.136 133.686 35.262 133.686 35.424C133.668 35.46 133.65 35.604 133.632 35.82C133.614 36.036 133.596 36.252 133.578 36.432C133.542 36.612 133.524 36.81 133.488 36.99C133.452 37.188 133.434 37.314 133.416 37.386C133.308 37.638 133.11 37.818 132.822 37.926C132.534 38.034 132.228 38.052 131.922 37.98C131.49 37.872 131.256 37.53 131.22 36.936C131.202 36.864 131.184 36.504 131.148 35.82C131.112 35.136 131.094 34.704 131.076 34.506C131.04 34.362 131.004 34.254 130.932 34.182C130.86 34.11 130.752 34.11 130.572 34.146C130.356 34.2 129.312 34.236 127.404 34.236C127.224 34.236 127.044 34.164 126.9 34.02C126.738 33.876 126.666 33.714 126.666 33.534C126.666 33.498 126.648 33.372 126.648 33.192C126.648 33.012 126.648 32.886 126.648 32.796C126.648 32.724 126.684 32.616 126.738 32.49C126.774 32.364 126.846 32.256 126.936 32.148C127.08 32.022 127.512 31.932 128.25 31.878C128.97 31.842 129.528 31.824 129.924 31.86ZM160.956 35.802C160.938 35.946 160.938 36.144 160.974 36.36C161.01 36.594 161.01 36.81 161.01 37.008C161.01 37.206 160.956 37.386 160.884 37.548C160.74 37.818 160.596 37.98 160.416 38.016C160.2 38.07 159.948 38.124 159.624 38.16C159.3 38.214 159.012 38.25 158.778 38.268C158.544 38.286 158.436 38.286 158.436 38.268H148.932C148.608 38.286 148.122 38.304 147.474 38.322C146.826 38.34 146.34 38.34 146.016 38.34C145.656 38.358 145.314 38.286 144.99 38.124L144.756 36.738L144.99 36.054C145.062 35.838 145.206 35.73 145.422 35.712L146.862 35.568C148.302 35.568 149.85 35.532 151.488 35.496C151.344 35.352 151.272 35.19 151.272 35.046C151.236 34.83 151.218 34.524 151.218 34.128C151.2 33.732 151.182 33.444 151.182 33.3C151.182 33.156 151.2 33.048 151.254 32.976C151.29 32.904 151.398 32.868 151.56 32.868C151.74 32.886 152.082 32.886 152.55 32.886C153.018 32.886 153.342 32.868 153.54 32.868C153.918 32.886 154.17 32.976 154.314 33.156C154.458 33.336 154.566 33.678 154.656 34.182C154.71 34.56 154.62 34.974 154.386 35.442C156.33 35.406 157.608 35.37 158.184 35.334C158.886 35.316 159.444 35.316 159.84 35.352C159.948 35.352 160.272 35.46 160.812 35.64C160.83 35.658 160.866 35.676 160.902 35.712C160.938 35.748 160.956 35.784 160.956 35.802ZM151.2 24.354C152.658 24.246 153.468 24.192 153.648 24.174C153.954 24.174 154.296 24.282 154.656 24.48C154.728 24.534 154.8 24.624 154.872 24.75C154.926 24.876 154.962 24.984 154.962 25.074C154.944 25.902 155.052 26.64 155.268 27.288C155.358 27.612 155.556 27.792 155.844 27.864C156.672 28.098 157.734 28.404 158.994 28.8C159.21 28.872 159.354 28.962 159.444 29.07C159.516 29.178 159.516 29.34 159.426 29.556C159.354 29.7 159.3 29.916 159.264 30.204C159.21 30.492 159.174 30.654 159.156 30.726C159.048 31.158 158.832 31.446 158.544 31.626C158.238 31.806 157.842 31.932 157.374 32.004C157.302 32.022 157.068 32.058 156.708 32.13C156.348 32.202 156.06 32.238 155.88 32.238C155.592 32.238 155.322 32.13 155.034 31.878C154.692 31.608 154.386 31.284 154.116 30.888C153.702 30.312 153.198 29.898 152.586 29.628C152.334 29.52 152.064 29.52 151.74 29.664C151.128 29.952 150.372 30.33 149.508 30.798C149.472 30.834 149.418 30.852 149.364 30.87C149.112 31.014 148.914 31.122 148.77 31.194C148.626 31.266 148.428 31.338 148.194 31.392C147.942 31.464 147.726 31.482 147.51 31.446C147.24 31.446 147.06 31.392 146.97 31.302C146.862 31.23 146.808 31.05 146.772 30.798C146.736 30.564 146.682 30.33 146.61 30.096C146.322 29.214 146.592 28.548 147.438 28.116C149.526 27.072 150.606 26.532 150.696 26.496C150.912 26.388 151.074 26.244 151.146 26.064C151.218 25.884 151.272 25.668 151.29 25.38C151.29 25.344 151.254 25.002 151.2 24.354Z" fill="white"/>
</svg>
