<svg width="288" height="58" viewBox="0 0 288 58" fill="none" xmlns="http://www.w3.org/2000/svg">
<rect width="288" height="58" rx="16" fill="#99C08E"/>
<path d="M115.232 32.848C115.196 33.028 115.142 33.496 115.07 34.234C114.998 34.972 114.962 35.404 114.944 35.512C114.89 35.782 114.728 35.944 114.476 35.98C114.206 36.034 113.594 36.07 112.622 36.088C112.478 36.088 112.388 36.052 112.316 35.98C112.244 35.908 112.19 35.8 112.19 35.656C112.172 35.35 112.172 35.062 112.19 34.792C112.19 34.54 112.19 34.306 112.19 34.09C112.172 33.874 112.154 33.694 112.118 33.532C112.082 33.388 112.028 33.262 111.938 33.154C111.83 33.064 111.704 33.01 111.542 32.974C111.326 32.938 110.444 32.902 108.896 32.848C107.348 32.812 106.412 32.776 106.088 32.776C105.872 32.776 105.71 32.65 105.602 32.38C105.368 31.876 105.35 31.264 105.548 30.526C105.566 30.4 105.728 30.31 106.034 30.238C106.07 30.22 106.43 30.22 107.114 30.22C107.798 30.22 108.158 30.22 108.194 30.22C108.572 30.202 109.688 30.166 111.524 30.13C113.36 30.094 114.422 30.058 114.746 30.04C115.106 30.04 116.114 30.022 117.752 30.004C119.39 30.004 120.308 29.986 120.506 29.986C120.758 29.986 120.974 30.148 121.136 30.508C121.388 31.048 121.442 31.57 121.298 32.074C121.244 32.254 121.1 32.398 120.866 32.488C120.596 32.596 119.66 32.686 118.058 32.722C116.438 32.758 115.61 32.794 115.538 32.794L115.232 32.848ZM111.596 21.436C113.054 21.346 113.864 21.292 114.044 21.274C114.35 21.274 114.692 21.382 115.052 21.562C115.124 21.598 115.196 21.688 115.268 21.796C115.322 21.904 115.358 22.012 115.358 22.084C115.34 22.84 115.448 23.488 115.664 24.064C115.754 24.352 115.952 24.532 116.24 24.604C117.068 24.802 118.13 25.072 119.39 25.432C119.606 25.504 119.75 25.576 119.84 25.666C119.912 25.774 119.912 25.918 119.822 26.116C119.75 26.26 119.696 26.44 119.66 26.692C119.606 26.944 119.57 27.106 119.552 27.178C119.444 27.556 119.228 27.826 118.94 27.988C118.634 28.15 118.238 28.258 117.77 28.312C117.698 28.33 117.464 28.366 117.104 28.438C116.744 28.51 116.456 28.528 116.276 28.528C115.988 28.528 115.718 28.438 115.43 28.222C115.088 27.97 114.782 27.664 114.512 27.304C114.098 26.8 113.594 26.44 112.982 26.188C112.73 26.08 112.46 26.098 112.136 26.224C111.524 26.476 110.768 26.818 109.904 27.25C109.868 27.268 109.814 27.286 109.76 27.304C109.508 27.448 109.31 27.538 109.166 27.592C109.022 27.664 108.824 27.718 108.59 27.772C108.338 27.826 108.122 27.844 107.906 27.826C107.636 27.808 107.456 27.754 107.366 27.682C107.258 27.61 107.204 27.466 107.168 27.232C107.132 27.016 107.078 26.818 107.006 26.602C106.718 25.81 106.988 25.216 107.834 24.838C109.922 23.902 111.002 23.398 111.092 23.362C111.308 23.272 111.47 23.146 111.542 22.984C111.614 22.822 111.668 22.624 111.686 22.372C111.686 22.336 111.65 22.03 111.596 21.436ZM139.316 26.782C139.298 27.538 139.118 28.06 138.776 28.348C138.632 28.456 138.452 28.546 138.236 28.582C138.02 28.618 137.822 28.636 137.66 28.618H137.426L137.03 28.51C136.778 28.456 136.67 28.294 136.67 28.042C136.67 26.026 136.67 24.64 136.634 23.92C136.58 23.128 136.562 22.156 136.562 21.004C136.562 20.77 136.634 20.572 136.814 20.41C136.976 20.266 137.192 20.176 137.444 20.176L138.722 20.302L138.902 20.446C138.974 20.5 139.064 20.608 139.208 20.77C139.334 20.932 139.406 21.094 139.406 21.238V23.02C139.388 23.02 139.37 23.236 139.37 23.65C139.37 24.082 139.352 24.64 139.352 25.324C139.334 26.008 139.316 26.494 139.316 26.782ZM135.356 23.182C135.698 23.254 135.932 23.344 136.058 23.452C136.184 23.56 136.256 23.776 136.292 24.064C136.292 24.208 136.31 24.424 136.31 24.712V25.198C136.31 25.504 136.112 25.72 135.698 25.864C135.41 25.972 135.068 26.044 134.672 26.098C134.204 26.17 133.934 26.008 133.862 25.612C133.682 24.856 133.79 24.1 134.222 23.344C134.258 23.308 134.312 23.272 134.384 23.236C134.456 23.218 134.582 23.2 134.744 23.182C134.888 23.164 134.996 23.146 135.032 23.128C135.032 23.128 135.14 23.146 135.356 23.182ZM128.426 22.786C127.778 22.642 126.968 22.66 125.996 22.84C125.024 23.02 124.34 23.11 123.98 23.092C124.106 22.012 124.196 21.238 124.268 20.77C125.222 20.644 125.726 20.572 125.798 20.572C127.418 20.482 128.462 20.446 128.966 20.464C129.218 20.482 129.47 20.518 129.722 20.554C129.974 20.608 130.298 20.68 130.694 20.77C131.072 20.878 131.324 20.932 131.468 20.95C131.9 21.058 132.062 21.364 131.918 21.85C131.774 22.336 131.666 22.678 131.594 22.894C131.522 23.11 131.378 23.38 131.198 23.74C131.018 24.1 130.802 24.388 130.55 24.622C130.478 24.694 130.388 24.784 130.28 24.892C130.154 25 130.064 25.09 130.028 25.126C129.992 25.162 129.938 25.216 129.902 25.288C129.866 25.36 129.848 25.432 129.866 25.468C129.884 25.522 129.92 25.576 129.992 25.648C130.046 25.72 130.136 25.792 130.262 25.864C130.334 25.918 130.442 26.026 130.622 26.17C130.784 26.314 130.892 26.422 130.928 26.476C131.09 26.71 131.306 26.944 131.558 27.196C131.81 27.448 132.008 27.682 132.17 27.916C132.458 28.348 132.404 28.672 131.972 28.888C131.828 28.978 131.63 29.104 131.378 29.284C131.126 29.464 130.946 29.572 130.856 29.626C130.766 29.698 130.694 29.734 130.622 29.752C130.55 29.77 130.46 29.77 130.37 29.734C130.28 29.698 130.226 29.68 130.19 29.662C130.154 29.662 130.082 29.608 129.956 29.518C129.83 29.446 129.758 29.392 129.74 29.374C129.65 29.338 129.596 29.302 129.578 29.266C129.542 29.23 129.524 29.212 129.524 29.194C129.524 29.176 129.488 29.122 129.434 29.05C129.362 28.978 129.272 28.87 129.146 28.744C129.092 28.708 129.002 28.6 128.858 28.402C128.714 28.222 128.57 28.06 128.462 27.952C128.102 27.592 127.706 27.43 127.274 27.43C126.842 27.43 126.32 27.646 125.672 28.078C125.312 28.312 124.934 28.618 124.538 28.996C124.178 29.32 123.962 29.248 123.854 28.798C123.62 27.862 123.494 27.286 123.458 27.052C123.386 26.656 123.44 26.296 123.62 25.99C123.8 25.702 124.106 25.486 124.52 25.342C125.132 25.162 125.708 24.91 126.23 24.55C126.734 24.19 127.328 23.722 128.012 23.128C128.012 23.128 128.156 23.02 128.426 22.786ZM133.502 34.63C133.79 34.63 134.042 34.522 134.258 34.27C134.474 34.036 134.582 33.748 134.582 33.388C134.582 32.884 134.294 32.578 133.754 32.452C133.16 32.344 131.99 32.272 130.244 32.272H130.226C130.046 32.272 129.902 32.308 129.776 32.362C129.65 32.434 129.542 32.524 129.47 32.65C129.398 32.776 129.344 32.884 129.308 32.974C129.272 33.082 129.236 33.208 129.2 33.388C129.164 33.478 129.164 33.55 129.164 33.622C129.164 33.82 129.218 33.982 129.362 34.09C129.506 34.216 129.668 34.288 129.884 34.324C130.082 34.378 130.352 34.414 130.712 34.45C131.054 34.486 131.36 34.522 131.63 34.522C131.882 34.54 132.224 34.558 132.638 34.576C133.052 34.612 133.322 34.63 133.448 34.63H133.502ZM130.856 30.436C131.54 30.436 132.368 30.508 133.304 30.616C134.24 30.724 135.032 30.868 135.68 31.048C136.778 31.372 137.39 31.948 137.516 32.776C137.552 32.992 137.57 33.19 137.57 33.37C137.57 34.18 137.246 34.828 136.616 35.296C136.184 35.62 135.824 35.89 135.536 36.07C135.248 36.25 134.906 36.43 134.474 36.592C134.042 36.772 133.61 36.862 133.178 36.862C132.998 36.862 132.566 36.898 131.864 36.934C131.162 36.97 130.694 36.988 130.46 36.988C130.118 36.988 129.812 36.97 129.56 36.916C129.488 36.916 129.416 36.916 129.308 36.88C128.804 36.808 128.408 36.736 128.156 36.682C127.886 36.628 127.562 36.52 127.184 36.34C126.806 36.178 126.482 35.962 126.23 35.692C125.744 35.224 125.51 34.792 125.51 34.378C125.51 33.55 125.618 32.92 125.87 32.506C126.536 31.39 127.922 30.706 130.01 30.49C130.28 30.454 130.568 30.436 130.856 30.436ZM162.886 21.184C162.922 21.436 162.958 21.994 162.976 22.894C162.976 23.794 162.976 24.352 162.94 24.568C162.94 24.64 162.958 24.748 162.994 24.892C163.03 25.036 163.066 25.108 163.066 25.108C163.084 25.198 163.264 25.306 163.588 25.432C163.66 25.486 163.804 25.522 163.984 25.558C164.164 25.594 164.29 25.63 164.362 25.648C164.56 25.72 164.686 25.81 164.74 25.918C164.776 26.026 164.776 26.188 164.74 26.386C164.578 27.016 164.2 27.394 163.606 27.538C163.498 27.574 163.39 27.574 163.3 27.556C163.192 27.538 163.138 27.52 163.12 27.484C163.084 27.466 163.066 27.466 163.03 27.484C162.994 27.52 163.012 27.592 163.066 27.718C163.102 27.934 163.12 28.474 163.102 29.302C163.066 30.148 162.994 30.67 162.886 30.868C162.724 31.138 162.598 31.3 162.49 31.354C161.932 31.66 161.392 31.696 160.888 31.462C160.744 31.408 160.654 31.282 160.636 31.102C160.6 30.922 160.618 30.76 160.654 30.598C160.654 30.382 160.654 29.806 160.636 28.888C160.618 27.97 160.618 27.466 160.618 27.376C160.636 24.172 160.69 22.138 160.78 21.238C160.816 20.878 161.014 20.68 161.392 20.662C161.608 20.662 161.842 20.644 162.076 20.608C162.4 20.572 162.598 20.572 162.67 20.608C162.742 20.662 162.778 20.77 162.814 20.914C162.832 21.058 162.85 21.148 162.886 21.184ZM159.286 29.05C159.34 29.518 159.34 29.824 159.268 29.95C159.196 30.094 159.034 30.148 158.782 30.148C157.864 30.256 155.83 30.292 152.662 30.22C152.32 30.22 151.204 30.238 149.314 30.274C148.936 30.292 148.666 30.184 148.486 29.932C148.306 29.698 148.27 29.374 148.342 28.978L148.378 28.69C148.378 28.618 148.378 28.564 148.396 28.528C148.414 28.51 148.486 28.474 148.594 28.402C148.63 28.366 148.684 28.348 148.72 28.33L152.176 27.916C152.392 27.268 152.626 26.818 152.878 26.584C152.896 26.584 152.914 26.566 152.95 26.566C151.978 26.422 150.97 26.152 149.89 25.756C148.882 25.396 148.36 24.82 148.324 24.046C148.252 23.038 148.576 22.282 149.332 21.796C149.746 21.526 150.088 21.31 150.358 21.166C150.628 21.022 150.97 20.878 151.384 20.752C151.798 20.644 152.212 20.59 152.608 20.59C152.77 20.608 153.04 20.608 153.418 20.608C153.796 20.608 154.138 20.626 154.426 20.644C154.714 20.662 154.984 20.698 155.236 20.752C155.272 20.77 155.38 20.806 155.578 20.842C155.776 20.896 155.902 20.932 155.956 20.932C155.992 20.95 156.118 20.986 156.298 21.022C156.478 21.076 156.586 21.112 156.658 21.148C156.73 21.184 156.838 21.22 156.982 21.274C157.126 21.346 157.252 21.4 157.342 21.436C157.414 21.49 157.522 21.544 157.63 21.616C157.738 21.688 157.846 21.778 157.936 21.85C158.026 21.94 158.116 22.03 158.206 22.12C158.566 22.552 158.746 22.912 158.764 23.236C158.782 23.56 158.602 23.974 158.242 24.514C157.666 25.306 157.108 25.864 156.568 26.188C156.01 26.512 155.308 26.656 154.48 26.656H154.426C154.48 26.746 154.534 26.908 154.606 27.16C154.66 27.412 154.714 27.556 154.768 27.628C154.84 27.772 155.146 27.862 155.65 27.916C156.154 27.97 156.694 28.006 157.27 28.024C157.828 28.042 158.17 28.06 158.278 28.078C158.53 28.168 158.656 28.204 158.692 28.204C158.944 28.312 159.106 28.402 159.178 28.51C159.25 28.618 159.286 28.798 159.286 29.05ZM153.868 25H154.048H154.228C154.534 25 154.768 24.928 154.93 24.784C155.074 24.64 155.218 24.388 155.326 24.028C155.452 23.56 155.236 23.254 154.696 23.11C153.976 22.93 153.13 22.768 152.194 22.642C151.906 22.606 151.672 22.696 151.456 22.876C151.24 23.056 151.114 23.308 151.078 23.596C151.006 24.136 151.258 24.478 151.834 24.622C152.032 24.694 152.302 24.748 152.644 24.82C152.968 24.892 153.256 24.928 153.508 24.964C153.742 25 153.868 25.018 153.868 25ZM155.776 33.532H157.63H159.61C161.302 33.532 162.418 33.55 162.94 33.55C162.976 33.55 163.03 33.568 163.066 33.568C163.102 33.586 163.12 33.604 163.156 33.604C163.174 33.622 163.192 33.64 163.228 33.676L163.282 33.766C163.282 33.784 163.3 33.82 163.318 33.856C163.318 33.91 163.336 33.946 163.336 33.964C163.336 33.982 163.354 34.018 163.372 34.072C163.372 34.126 163.39 34.162 163.39 34.162C163.408 34.288 163.426 34.414 163.426 34.54C163.426 35.08 163.3 35.548 163.084 35.98C163.012 36.106 162.868 36.196 162.616 36.232C162.364 36.268 161.464 36.304 159.916 36.304C158.368 36.322 157.45 36.34 157.162 36.376C157.09 36.394 157.018 36.394 156.964 36.394C156.658 36.394 156.01 36.412 155.02 36.43C154.03 36.448 153.31 36.466 152.86 36.484C152.752 36.484 152.554 36.502 152.302 36.52C152.05 36.538 151.852 36.538 151.726 36.538C151.312 36.538 150.97 36.466 150.7 36.304C150.628 36.268 150.556 36.178 150.484 36.07C150.412 35.962 150.376 35.872 150.376 35.764C150.34 35.224 150.286 34.36 150.232 33.136C150.16 31.93 150.124 31.174 150.124 30.886H150.142C150.376 30.886 150.61 30.886 150.826 30.868C150.844 30.868 150.934 30.868 151.078 30.832C151.222 30.814 151.312 30.796 151.384 30.796C151.6 30.796 151.924 30.868 152.356 31.012C152.5 31.066 152.572 31.156 152.572 31.282C152.572 31.336 152.554 31.408 152.554 31.498C152.554 31.606 152.554 31.678 152.554 31.732V32.11V32.47V33.01V33.532H155.776ZM170.572 33.838C170.572 33.694 170.608 33.514 170.68 33.262C170.752 33.01 170.788 32.812 170.806 32.668C170.824 32.074 170.842 31.678 170.878 31.48C170.878 31.336 170.95 31.21 171.058 31.12C171.166 31.048 171.292 31.012 171.454 31.012C171.796 31.03 172.192 31.066 172.642 31.102C172.786 31.138 172.876 31.228 172.876 31.39C172.858 31.966 172.858 32.38 172.876 32.632C172.876 32.812 172.93 33.136 173.002 33.568C173.002 33.64 173.038 33.694 173.11 33.712C173.164 33.748 173.272 33.784 173.434 33.856C173.596 33.928 173.74 33.964 173.848 34C173.956 34.036 174.082 34.054 174.19 34.054C174.442 34.09 174.856 34.054 175.432 33.946C175.468 33.946 175.504 33.892 175.54 33.82C175.576 33.748 175.612 33.658 175.63 33.586C175.63 33.442 175.648 33.172 175.684 32.812C175.72 32.452 175.756 32.182 175.792 31.984C175.828 31.732 175.918 31.498 176.08 31.282C176.116 31.246 176.332 31.174 176.764 31.084C177.268 30.976 177.574 31.192 177.682 31.714C177.754 32.038 177.772 32.452 177.736 32.956C177.718 33.136 178.186 33.316 179.158 33.46C180.112 33.622 180.796 33.712 181.21 33.712H181.984C182.128 33.73 182.218 33.784 182.254 33.892C182.47 34.45 182.578 34.828 182.614 35.008C182.65 35.296 182.578 35.512 182.434 35.692C182.29 35.872 182.056 35.98 181.732 36.016C181.624 36.034 181.246 36.034 180.634 36.034C180.004 36.034 179.356 36.034 178.69 36.034C178.006 36.034 177.646 36.016 177.574 36.016C177.322 36.034 176.674 36.052 175.648 36.052C174.622 36.052 173.83 36.07 173.29 36.07C173.128 36.088 172.876 36.106 172.552 36.142C172.228 36.178 171.976 36.196 171.832 36.196C171.328 36.196 169.726 36.124 167.026 35.962H166.954C166.918 35.962 166.882 35.944 166.864 35.944C166.63 35.98 166.486 35.962 166.414 35.908C166.342 35.854 166.306 35.71 166.306 35.494C166.288 35.17 166.288 34.756 166.306 34.252C166.306 34.108 166.396 34 166.54 33.892C166.684 33.802 166.864 33.748 167.08 33.748C167.188 33.748 167.764 33.766 168.844 33.802C169.906 33.838 170.482 33.838 170.572 33.838ZM171.976 27.61C171.904 28.024 171.922 28.276 172.012 28.366C172.102 28.456 172.354 28.456 172.75 28.384C173.128 28.312 173.758 28.258 174.658 28.222C175.072 28.222 175.666 28.204 176.422 28.168C177.178 28.15 177.736 28.132 178.06 28.114C178.06 28.114 178.564 28.078 179.572 28.006C179.77 28.006 179.914 28.042 180.004 28.132C180.094 28.222 180.13 28.366 180.13 28.582C180.13 28.87 180.112 29.104 180.094 29.284C180.058 29.464 180.022 29.662 179.95 29.878C179.878 30.094 179.752 30.274 179.608 30.418C179.446 30.562 179.248 30.67 178.996 30.742C178.852 30.778 178.69 30.814 178.51 30.814C178.33 30.814 178.132 30.814 177.88 30.778C177.628 30.76 177.448 30.742 177.376 30.742C176.854 30.724 176.188 30.688 175.396 30.634C173.74 30.544 172.102 30.436 170.464 30.31C170.392 30.31 170.32 30.292 170.212 30.238C169.816 30.076 169.438 29.698 169.078 29.104C168.7 28.528 168.538 28.042 168.574 27.646C168.628 27.07 168.754 26.512 168.952 26.008C169.06 25.684 169.204 25.486 169.384 25.414C169.546 25.342 169.816 25.324 170.176 25.396C170.266 25.414 170.356 25.432 170.464 25.432C170.572 25.432 170.68 25.432 170.824 25.414C170.968 25.414 171.076 25.396 171.148 25.396C171.166 25.396 171.328 25.396 171.652 25.396C171.958 25.396 172.12 25.396 172.156 25.396C172.228 25.396 172.516 25.414 173.02 25.45C173.524 25.486 173.92 25.486 174.19 25.468C175.018 25.45 175.756 25.378 176.404 25.252C176.566 25.216 176.674 25.144 176.746 25.036C176.8 24.928 176.836 24.766 176.854 24.568C176.854 24.388 176.89 24.244 176.926 24.172C176.926 24.172 176.89 24.136 176.854 24.1C176.8 24.064 176.746 24.028 176.674 23.992C176.602 23.956 176.53 23.92 176.494 23.902C176.242 23.848 175.972 23.812 175.684 23.812C175.36 23.812 174.802 23.812 174.01 23.812C173.218 23.812 172.678 23.812 172.372 23.794C172.192 23.794 171.886 23.794 171.454 23.758C171.004 23.722 170.662 23.704 170.446 23.704C169.906 23.74 169.33 23.812 168.7 23.956C168.556 23.992 168.43 23.992 168.358 23.956C168.286 23.92 168.25 23.83 168.25 23.686C168.268 22.48 168.304 21.688 168.358 21.292C168.394 20.95 168.52 20.698 168.7 20.554C168.88 20.41 169.15 20.338 169.51 20.338C171.274 20.302 172.75 20.428 173.956 20.734C174.064 20.77 174.208 20.788 174.352 20.806C174.496 20.824 174.64 20.842 174.748 20.842C174.856 20.842 175 20.842 175.18 20.842C175.36 20.842 175.486 20.86 175.576 20.86C175.702 20.86 176.044 20.878 176.584 20.896C177.124 20.914 177.52 20.932 177.772 20.95C178.006 20.968 178.33 21.004 178.744 21.058C179.14 21.112 179.518 21.184 179.842 21.292C180.13 21.4 180.364 21.562 180.526 21.796C180.904 22.426 181.012 23.29 180.85 24.406C180.814 24.64 180.724 24.982 180.616 25.432C180.49 25.882 180.418 26.224 180.382 26.458C180.31 26.854 180.148 27.142 179.896 27.322C179.644 27.502 179.302 27.61 178.906 27.664C177.97 27.808 177.034 27.88 176.098 27.88H175.792C175.432 27.88 175.054 27.862 174.658 27.826C174.262 27.79 173.794 27.754 173.29 27.7C172.786 27.664 172.408 27.628 172.174 27.592C172.156 27.592 172.084 27.61 171.976 27.61Z" fill="#578246"/>
<path d="M115.232 34.848C115.196 35.028 115.142 35.496 115.07 36.234C114.998 36.972 114.962 37.404 114.944 37.512C114.89 37.782 114.728 37.944 114.476 37.98C114.206 38.034 113.594 38.07 112.622 38.088C112.478 38.088 112.388 38.052 112.316 37.98C112.244 37.908 112.19 37.8 112.19 37.656C112.172 37.35 112.172 37.062 112.19 36.792C112.19 36.54 112.19 36.306 112.19 36.09C112.172 35.874 112.154 35.694 112.118 35.532C112.082 35.388 112.028 35.262 111.938 35.154C111.83 35.064 111.704 35.01 111.542 34.974C111.326 34.938 110.444 34.902 108.896 34.848C107.348 34.812 106.412 34.776 106.088 34.776C105.872 34.776 105.71 34.65 105.602 34.38C105.368 33.876 105.35 33.264 105.548 32.526C105.566 32.4 105.728 32.31 106.034 32.238C106.07 32.22 106.43 32.22 107.114 32.22C107.798 32.22 108.158 32.22 108.194 32.22C108.572 32.202 109.688 32.166 111.524 32.13C113.36 32.094 114.422 32.058 114.746 32.04C115.106 32.04 116.114 32.022 117.752 32.004C119.39 32.004 120.308 31.986 120.506 31.986C120.758 31.986 120.974 32.148 121.136 32.508C121.388 33.048 121.442 33.57 121.298 34.074C121.244 34.254 121.1 34.398 120.866 34.488C120.596 34.596 119.66 34.686 118.058 34.722C116.438 34.758 115.61 34.794 115.538 34.794L115.232 34.848ZM111.596 23.436C113.054 23.346 113.864 23.292 114.044 23.274C114.35 23.274 114.692 23.382 115.052 23.562C115.124 23.598 115.196 23.688 115.268 23.796C115.322 23.904 115.358 24.012 115.358 24.084C115.34 24.84 115.448 25.488 115.664 26.064C115.754 26.352 115.952 26.532 116.24 26.604C117.068 26.802 118.13 27.072 119.39 27.432C119.606 27.504 119.75 27.576 119.84 27.666C119.912 27.774 119.912 27.918 119.822 28.116C119.75 28.26 119.696 28.44 119.66 28.692C119.606 28.944 119.57 29.106 119.552 29.178C119.444 29.556 119.228 29.826 118.94 29.988C118.634 30.15 118.238 30.258 117.77 30.312C117.698 30.33 117.464 30.366 117.104 30.438C116.744 30.51 116.456 30.528 116.276 30.528C115.988 30.528 115.718 30.438 115.43 30.222C115.088 29.97 114.782 29.664 114.512 29.304C114.098 28.8 113.594 28.44 112.982 28.188C112.73 28.08 112.46 28.098 112.136 28.224C111.524 28.476 110.768 28.818 109.904 29.25C109.868 29.268 109.814 29.286 109.76 29.304C109.508 29.448 109.31 29.538 109.166 29.592C109.022 29.664 108.824 29.718 108.59 29.772C108.338 29.826 108.122 29.844 107.906 29.826C107.636 29.808 107.456 29.754 107.366 29.682C107.258 29.61 107.204 29.466 107.168 29.232C107.132 29.016 107.078 28.818 107.006 28.602C106.718 27.81 106.988 27.216 107.834 26.838C109.922 25.902 111.002 25.398 111.092 25.362C111.308 25.272 111.47 25.146 111.542 24.984C111.614 24.822 111.668 24.624 111.686 24.372C111.686 24.336 111.65 24.03 111.596 23.436ZM139.316 28.782C139.298 29.538 139.118 30.06 138.776 30.348C138.632 30.456 138.452 30.546 138.236 30.582C138.02 30.618 137.822 30.636 137.66 30.618H137.426L137.03 30.51C136.778 30.456 136.67 30.294 136.67 30.042C136.67 28.026 136.67 26.64 136.634 25.92C136.58 25.128 136.562 24.156 136.562 23.004C136.562 22.77 136.634 22.572 136.814 22.41C136.976 22.266 137.192 22.176 137.444 22.176L138.722 22.302L138.902 22.446C138.974 22.5 139.064 22.608 139.208 22.77C139.334 22.932 139.406 23.094 139.406 23.238V25.02C139.388 25.02 139.37 25.236 139.37 25.65C139.37 26.082 139.352 26.64 139.352 27.324C139.334 28.008 139.316 28.494 139.316 28.782ZM135.356 25.182C135.698 25.254 135.932 25.344 136.058 25.452C136.184 25.56 136.256 25.776 136.292 26.064C136.292 26.208 136.31 26.424 136.31 26.712V27.198C136.31 27.504 136.112 27.72 135.698 27.864C135.41 27.972 135.068 28.044 134.672 28.098C134.204 28.17 133.934 28.008 133.862 27.612C133.682 26.856 133.79 26.1 134.222 25.344C134.258 25.308 134.312 25.272 134.384 25.236C134.456 25.218 134.582 25.2 134.744 25.182C134.888 25.164 134.996 25.146 135.032 25.128C135.032 25.128 135.14 25.146 135.356 25.182ZM128.426 24.786C127.778 24.642 126.968 24.66 125.996 24.84C125.024 25.02 124.34 25.11 123.98 25.092C124.106 24.012 124.196 23.238 124.268 22.77C125.222 22.644 125.726 22.572 125.798 22.572C127.418 22.482 128.462 22.446 128.966 22.464C129.218 22.482 129.47 22.518 129.722 22.554C129.974 22.608 130.298 22.68 130.694 22.77C131.072 22.878 131.324 22.932 131.468 22.95C131.9 23.058 132.062 23.364 131.918 23.85C131.774 24.336 131.666 24.678 131.594 24.894C131.522 25.11 131.378 25.38 131.198 25.74C131.018 26.1 130.802 26.388 130.55 26.622C130.478 26.694 130.388 26.784 130.28 26.892C130.154 27 130.064 27.09 130.028 27.126C129.992 27.162 129.938 27.216 129.902 27.288C129.866 27.36 129.848 27.432 129.866 27.468C129.884 27.522 129.92 27.576 129.992 27.648C130.046 27.72 130.136 27.792 130.262 27.864C130.334 27.918 130.442 28.026 130.622 28.17C130.784 28.314 130.892 28.422 130.928 28.476C131.09 28.71 131.306 28.944 131.558 29.196C131.81 29.448 132.008 29.682 132.17 29.916C132.458 30.348 132.404 30.672 131.972 30.888C131.828 30.978 131.63 31.104 131.378 31.284C131.126 31.464 130.946 31.572 130.856 31.626C130.766 31.698 130.694 31.734 130.622 31.752C130.55 31.77 130.46 31.77 130.37 31.734C130.28 31.698 130.226 31.68 130.19 31.662C130.154 31.662 130.082 31.608 129.956 31.518C129.83 31.446 129.758 31.392 129.74 31.374C129.65 31.338 129.596 31.302 129.578 31.266C129.542 31.23 129.524 31.212 129.524 31.194C129.524 31.176 129.488 31.122 129.434 31.05C129.362 30.978 129.272 30.87 129.146 30.744C129.092 30.708 129.002 30.6 128.858 30.402C128.714 30.222 128.57 30.06 128.462 29.952C128.102 29.592 127.706 29.43 127.274 29.43C126.842 29.43 126.32 29.646 125.672 30.078C125.312 30.312 124.934 30.618 124.538 30.996C124.178 31.32 123.962 31.248 123.854 30.798C123.62 29.862 123.494 29.286 123.458 29.052C123.386 28.656 123.44 28.296 123.62 27.99C123.8 27.702 124.106 27.486 124.52 27.342C125.132 27.162 125.708 26.91 126.23 26.55C126.734 26.19 127.328 25.722 128.012 25.128C128.012 25.128 128.156 25.02 128.426 24.786ZM133.502 36.63C133.79 36.63 134.042 36.522 134.258 36.27C134.474 36.036 134.582 35.748 134.582 35.388C134.582 34.884 134.294 34.578 133.754 34.452C133.16 34.344 131.99 34.272 130.244 34.272H130.226C130.046 34.272 129.902 34.308 129.776 34.362C129.65 34.434 129.542 34.524 129.47 34.65C129.398 34.776 129.344 34.884 129.308 34.974C129.272 35.082 129.236 35.208 129.2 35.388C129.164 35.478 129.164 35.55 129.164 35.622C129.164 35.82 129.218 35.982 129.362 36.09C129.506 36.216 129.668 36.288 129.884 36.324C130.082 36.378 130.352 36.414 130.712 36.45C131.054 36.486 131.36 36.522 131.63 36.522C131.882 36.54 132.224 36.558 132.638 36.576C133.052 36.612 133.322 36.63 133.448 36.63H133.502ZM130.856 32.436C131.54 32.436 132.368 32.508 133.304 32.616C134.24 32.724 135.032 32.868 135.68 33.048C136.778 33.372 137.39 33.948 137.516 34.776C137.552 34.992 137.57 35.19 137.57 35.37C137.57 36.18 137.246 36.828 136.616 37.296C136.184 37.62 135.824 37.89 135.536 38.07C135.248 38.25 134.906 38.43 134.474 38.592C134.042 38.772 133.61 38.862 133.178 38.862C132.998 38.862 132.566 38.898 131.864 38.934C131.162 38.97 130.694 38.988 130.46 38.988C130.118 38.988 129.812 38.97 129.56 38.916C129.488 38.916 129.416 38.916 129.308 38.88C128.804 38.808 128.408 38.736 128.156 38.682C127.886 38.628 127.562 38.52 127.184 38.34C126.806 38.178 126.482 37.962 126.23 37.692C125.744 37.224 125.51 36.792 125.51 36.378C125.51 35.55 125.618 34.92 125.87 34.506C126.536 33.39 127.922 32.706 130.01 32.49C130.28 32.454 130.568 32.436 130.856 32.436ZM162.886 23.184C162.922 23.436 162.958 23.994 162.976 24.894C162.976 25.794 162.976 26.352 162.94 26.568C162.94 26.64 162.958 26.748 162.994 26.892C163.03 27.036 163.066 27.108 163.066 27.108C163.084 27.198 163.264 27.306 163.588 27.432C163.66 27.486 163.804 27.522 163.984 27.558C164.164 27.594 164.29 27.63 164.362 27.648C164.56 27.72 164.686 27.81 164.74 27.918C164.776 28.026 164.776 28.188 164.74 28.386C164.578 29.016 164.2 29.394 163.606 29.538C163.498 29.574 163.39 29.574 163.3 29.556C163.192 29.538 163.138 29.52 163.12 29.484C163.084 29.466 163.066 29.466 163.03 29.484C162.994 29.52 163.012 29.592 163.066 29.718C163.102 29.934 163.12 30.474 163.102 31.302C163.066 32.148 162.994 32.67 162.886 32.868C162.724 33.138 162.598 33.3 162.49 33.354C161.932 33.66 161.392 33.696 160.888 33.462C160.744 33.408 160.654 33.282 160.636 33.102C160.6 32.922 160.618 32.76 160.654 32.598C160.654 32.382 160.654 31.806 160.636 30.888C160.618 29.97 160.618 29.466 160.618 29.376C160.636 26.172 160.69 24.138 160.78 23.238C160.816 22.878 161.014 22.68 161.392 22.662C161.608 22.662 161.842 22.644 162.076 22.608C162.4 22.572 162.598 22.572 162.67 22.608C162.742 22.662 162.778 22.77 162.814 22.914C162.832 23.058 162.85 23.148 162.886 23.184ZM159.286 31.05C159.34 31.518 159.34 31.824 159.268 31.95C159.196 32.094 159.034 32.148 158.782 32.148C157.864 32.256 155.83 32.292 152.662 32.22C152.32 32.22 151.204 32.238 149.314 32.274C148.936 32.292 148.666 32.184 148.486 31.932C148.306 31.698 148.27 31.374 148.342 30.978L148.378 30.69C148.378 30.618 148.378 30.564 148.396 30.528C148.414 30.51 148.486 30.474 148.594 30.402C148.63 30.366 148.684 30.348 148.72 30.33L152.176 29.916C152.392 29.268 152.626 28.818 152.878 28.584C152.896 28.584 152.914 28.566 152.95 28.566C151.978 28.422 150.97 28.152 149.89 27.756C148.882 27.396 148.36 26.82 148.324 26.046C148.252 25.038 148.576 24.282 149.332 23.796C149.746 23.526 150.088 23.31 150.358 23.166C150.628 23.022 150.97 22.878 151.384 22.752C151.798 22.644 152.212 22.59 152.608 22.59C152.77 22.608 153.04 22.608 153.418 22.608C153.796 22.608 154.138 22.626 154.426 22.644C154.714 22.662 154.984 22.698 155.236 22.752C155.272 22.77 155.38 22.806 155.578 22.842C155.776 22.896 155.902 22.932 155.956 22.932C155.992 22.95 156.118 22.986 156.298 23.022C156.478 23.076 156.586 23.112 156.658 23.148C156.73 23.184 156.838 23.22 156.982 23.274C157.126 23.346 157.252 23.4 157.342 23.436C157.414 23.49 157.522 23.544 157.63 23.616C157.738 23.688 157.846 23.778 157.936 23.85C158.026 23.94 158.116 24.03 158.206 24.12C158.566 24.552 158.746 24.912 158.764 25.236C158.782 25.56 158.602 25.974 158.242 26.514C157.666 27.306 157.108 27.864 156.568 28.188C156.01 28.512 155.308 28.656 154.48 28.656H154.426C154.48 28.746 154.534 28.908 154.606 29.16C154.66 29.412 154.714 29.556 154.768 29.628C154.84 29.772 155.146 29.862 155.65 29.916C156.154 29.97 156.694 30.006 157.27 30.024C157.828 30.042 158.17 30.06 158.278 30.078C158.53 30.168 158.656 30.204 158.692 30.204C158.944 30.312 159.106 30.402 159.178 30.51C159.25 30.618 159.286 30.798 159.286 31.05ZM153.868 27H154.048H154.228C154.534 27 154.768 26.928 154.93 26.784C155.074 26.64 155.218 26.388 155.326 26.028C155.452 25.56 155.236 25.254 154.696 25.11C153.976 24.93 153.13 24.768 152.194 24.642C151.906 24.606 151.672 24.696 151.456 24.876C151.24 25.056 151.114 25.308 151.078 25.596C151.006 26.136 151.258 26.478 151.834 26.622C152.032 26.694 152.302 26.748 152.644 26.82C152.968 26.892 153.256 26.928 153.508 26.964C153.742 27 153.868 27.018 153.868 27ZM155.776 35.532H157.63H159.61C161.302 35.532 162.418 35.55 162.94 35.55C162.976 35.55 163.03 35.568 163.066 35.568C163.102 35.586 163.12 35.604 163.156 35.604C163.174 35.622 163.192 35.64 163.228 35.676L163.282 35.766C163.282 35.784 163.3 35.82 163.318 35.856C163.318 35.91 163.336 35.946 163.336 35.964C163.336 35.982 163.354 36.018 163.372 36.072C163.372 36.126 163.39 36.162 163.39 36.162C163.408 36.288 163.426 36.414 163.426 36.54C163.426 37.08 163.3 37.548 163.084 37.98C163.012 38.106 162.868 38.196 162.616 38.232C162.364 38.268 161.464 38.304 159.916 38.304C158.368 38.322 157.45 38.34 157.162 38.376C157.09 38.394 157.018 38.394 156.964 38.394C156.658 38.394 156.01 38.412 155.02 38.43C154.03 38.448 153.31 38.466 152.86 38.484C152.752 38.484 152.554 38.502 152.302 38.52C152.05 38.538 151.852 38.538 151.726 38.538C151.312 38.538 150.97 38.466 150.7 38.304C150.628 38.268 150.556 38.178 150.484 38.07C150.412 37.962 150.376 37.872 150.376 37.764C150.34 37.224 150.286 36.36 150.232 35.136C150.16 33.93 150.124 33.174 150.124 32.886H150.142C150.376 32.886 150.61 32.886 150.826 32.868C150.844 32.868 150.934 32.868 151.078 32.832C151.222 32.814 151.312 32.796 151.384 32.796C151.6 32.796 151.924 32.868 152.356 33.012C152.5 33.066 152.572 33.156 152.572 33.282C152.572 33.336 152.554 33.408 152.554 33.498C152.554 33.606 152.554 33.678 152.554 33.732V34.11V34.47V35.01V35.532H155.776ZM170.572 35.838C170.572 35.694 170.608 35.514 170.68 35.262C170.752 35.01 170.788 34.812 170.806 34.668C170.824 34.074 170.842 33.678 170.878 33.48C170.878 33.336 170.95 33.21 171.058 33.12C171.166 33.048 171.292 33.012 171.454 33.012C171.796 33.03 172.192 33.066 172.642 33.102C172.786 33.138 172.876 33.228 172.876 33.39C172.858 33.966 172.858 34.38 172.876 34.632C172.876 34.812 172.93 35.136 173.002 35.568C173.002 35.64 173.038 35.694 173.11 35.712C173.164 35.748 173.272 35.784 173.434 35.856C173.596 35.928 173.74 35.964 173.848 36C173.956 36.036 174.082 36.054 174.19 36.054C174.442 36.09 174.856 36.054 175.432 35.946C175.468 35.946 175.504 35.892 175.54 35.82C175.576 35.748 175.612 35.658 175.63 35.586C175.63 35.442 175.648 35.172 175.684 34.812C175.72 34.452 175.756 34.182 175.792 33.984C175.828 33.732 175.918 33.498 176.08 33.282C176.116 33.246 176.332 33.174 176.764 33.084C177.268 32.976 177.574 33.192 177.682 33.714C177.754 34.038 177.772 34.452 177.736 34.956C177.718 35.136 178.186 35.316 179.158 35.46C180.112 35.622 180.796 35.712 181.21 35.712H181.984C182.128 35.73 182.218 35.784 182.254 35.892C182.47 36.45 182.578 36.828 182.614 37.008C182.65 37.296 182.578 37.512 182.434 37.692C182.29 37.872 182.056 37.98 181.732 38.016C181.624 38.034 181.246 38.034 180.634 38.034C180.004 38.034 179.356 38.034 178.69 38.034C178.006 38.034 177.646 38.016 177.574 38.016C177.322 38.034 176.674 38.052 175.648 38.052C174.622 38.052 173.83 38.07 173.29 38.07C173.128 38.088 172.876 38.106 172.552 38.142C172.228 38.178 171.976 38.196 171.832 38.196C171.328 38.196 169.726 38.124 167.026 37.962H166.954C166.918 37.962 166.882 37.944 166.864 37.944C166.63 37.98 166.486 37.962 166.414 37.908C166.342 37.854 166.306 37.71 166.306 37.494C166.288 37.17 166.288 36.756 166.306 36.252C166.306 36.108 166.396 36 166.54 35.892C166.684 35.802 166.864 35.748 167.08 35.748C167.188 35.748 167.764 35.766 168.844 35.802C169.906 35.838 170.482 35.838 170.572 35.838ZM171.976 29.61C171.904 30.024 171.922 30.276 172.012 30.366C172.102 30.456 172.354 30.456 172.75 30.384C173.128 30.312 173.758 30.258 174.658 30.222C175.072 30.222 175.666 30.204 176.422 30.168C177.178 30.15 177.736 30.132 178.06 30.114C178.06 30.114 178.564 30.078 179.572 30.006C179.77 30.006 179.914 30.042 180.004 30.132C180.094 30.222 180.13 30.366 180.13 30.582C180.13 30.87 180.112 31.104 180.094 31.284C180.058 31.464 180.022 31.662 179.95 31.878C179.878 32.094 179.752 32.274 179.608 32.418C179.446 32.562 179.248 32.67 178.996 32.742C178.852 32.778 178.69 32.814 178.51 32.814C178.33 32.814 178.132 32.814 177.88 32.778C177.628 32.76 177.448 32.742 177.376 32.742C176.854 32.724 176.188 32.688 175.396 32.634C173.74 32.544 172.102 32.436 170.464 32.31C170.392 32.31 170.32 32.292 170.212 32.238C169.816 32.076 169.438 31.698 169.078 31.104C168.7 30.528 168.538 30.042 168.574 29.646C168.628 29.07 168.754 28.512 168.952 28.008C169.06 27.684 169.204 27.486 169.384 27.414C169.546 27.342 169.816 27.324 170.176 27.396C170.266 27.414 170.356 27.432 170.464 27.432C170.572 27.432 170.68 27.432 170.824 27.414C170.968 27.414 171.076 27.396 171.148 27.396C171.166 27.396 171.328 27.396 171.652 27.396C171.958 27.396 172.12 27.396 172.156 27.396C172.228 27.396 172.516 27.414 173.02 27.45C173.524 27.486 173.92 27.486 174.19 27.468C175.018 27.45 175.756 27.378 176.404 27.252C176.566 27.216 176.674 27.144 176.746 27.036C176.8 26.928 176.836 26.766 176.854 26.568C176.854 26.388 176.89 26.244 176.926 26.172C176.926 26.172 176.89 26.136 176.854 26.1C176.8 26.064 176.746 26.028 176.674 25.992C176.602 25.956 176.53 25.92 176.494 25.902C176.242 25.848 175.972 25.812 175.684 25.812C175.36 25.812 174.802 25.812 174.01 25.812C173.218 25.812 172.678 25.812 172.372 25.794C172.192 25.794 171.886 25.794 171.454 25.758C171.004 25.722 170.662 25.704 170.446 25.704C169.906 25.74 169.33 25.812 168.7 25.956C168.556 25.992 168.43 25.992 168.358 25.956C168.286 25.92 168.25 25.83 168.25 25.686C168.268 24.48 168.304 23.688 168.358 23.292C168.394 22.95 168.52 22.698 168.7 22.554C168.88 22.41 169.15 22.338 169.51 22.338C171.274 22.302 172.75 22.428 173.956 22.734C174.064 22.77 174.208 22.788 174.352 22.806C174.496 22.824 174.64 22.842 174.748 22.842C174.856 22.842 175 22.842 175.18 22.842C175.36 22.842 175.486 22.86 175.576 22.86C175.702 22.86 176.044 22.878 176.584 22.896C177.124 22.914 177.52 22.932 177.772 22.95C178.006 22.968 178.33 23.004 178.744 23.058C179.14 23.112 179.518 23.184 179.842 23.292C180.13 23.4 180.364 23.562 180.526 23.796C180.904 24.426 181.012 25.29 180.85 26.406C180.814 26.64 180.724 26.982 180.616 27.432C180.49 27.882 180.418 28.224 180.382 28.458C180.31 28.854 180.148 29.142 179.896 29.322C179.644 29.502 179.302 29.61 178.906 29.664C177.97 29.808 177.034 29.88 176.098 29.88H175.792C175.432 29.88 175.054 29.862 174.658 29.826C174.262 29.79 173.794 29.754 173.29 29.7C172.786 29.664 172.408 29.628 172.174 29.592C172.156 29.592 172.084 29.61 171.976 29.61Z" fill="white"/>
</svg>
