<?xml version="1.0"?>
<svg width="31" height="31" xmlns="http://www.w3.org/2000/svg" xmlns:svg="http://www.w3.org/2000/svg">
 <defs>
  <clipPath id="clip0_1_35368">
   <rect fill="white" height="18" id="svg_1" transform="translate(8 6)" width="18"/>
  </clipPath>
 </defs>
 <g class="layer">
  <title>Layer 1</title>
  <rect fill="white" fill-opacity="0.3" height="31" id="svg_2" rx="15.5" width="31"/>
  <rect height="30" id="svg_3" rx="15" fill="white" stroke="black" stroke-opacity="0.1" width="30" x="0.5" y="0.5"/>
  <g clip-path="url(#clip0_1_35368)" id="svg_4" transform="translate(-1, 0)">
   <path d="m20,13.88c0,0.62 -0.34,1.12 -0.75,1.12c-0.41,0 -0.75,-0.5 -0.75,-1.12c0,-0.63 0.34,-1.13 0.75,-1.13c0.41,0 0.75,0.5 0.75,1.13z" fill="#414141" id="svg_5"/>
   <path d="m15.5,13.88c0,0.62 -0.34,1.12 -0.75,1.12c-0.41,0 -0.75,-0.5 -0.75,-1.12c0,-0.63 0.34,-1.13 0.75,-1.13c0.41,0 0.75,0.5 0.75,1.13z" fill="#414141" id="svg_6"/>
   <path clip-rule="evenodd" d="m17,8.06c-3.83,0 -6.94,3.11 -6.94,6.94c0,3.64 2.81,6.63 6.38,6.91c0,-1.11 0.01,-1.94 0.1,-2.62c-0.79,-0.09 -1.51,-0.38 -2.13,-0.84c-0.24,-0.18 -0.3,-0.54 -0.11,-0.79c0.18,-0.24 0.54,-0.3 0.79,-0.11c0.49,0.37 1.09,0.6 1.73,0.63c0.61,-1.6 1.89,-2.85 3.51,-3.42c0.86,-0.3 1.89,-0.32 3.58,-0.32c-0.28,-3.57 -3.27,-6.38 -6.91,-6.38zm6.85,7.5c-1.69,0.01 -2.5,0.04 -3.15,0.27c-1.34,0.47 -2.4,1.53 -2.87,2.87c-0.23,0.65 -0.26,1.46 -0.27,3.15l6.29,-6.29zm-14.91,-0.56c0,-4.45 3.61,-8.06 8.06,-8.06c4.45,0 8.06,3.61 8.06,8.06c0,0.27 -0.01,0.54 -0.04,0.81l-0.02,0.2l-6.99,6.99l-0.2,0.02c-0.27,0.03 -0.54,0.04 -0.81,0.04c-4.45,0 -8.06,-3.61 -8.06,-8.06z" fill="#414141" fill-rule="evenodd" id="svg_7"/>
  </g>
 </g>
</svg>