<svg width="312" height="58" viewBox="0 0 312 58" fill="none" xmlns="http://www.w3.org/2000/svg">
<rect width="312" height="58" rx="16" fill="#DDDDDD"/>
<g transform="translate(12, 0)">
<path d="M141.316 21.987C141.352 22.239 141.388 22.617 141.406 23.157C141.406 23.697 141.406 24.075 141.37 24.273C141.37 24.363 141.388 24.471 141.424 24.615C141.46 24.759 141.496 24.831 141.496 24.831C141.514 24.921 141.694 25.029 142.018 25.155C142.09 25.191 142.234 25.245 142.414 25.281C142.594 25.317 142.72 25.353 142.792 25.371C142.99 25.443 143.116 25.533 143.17 25.641C143.206 25.749 143.206 25.911 143.17 26.109C143.008 26.739 142.63 27.117 142.036 27.261C141.928 27.297 141.82 27.297 141.73 27.279C141.622 27.261 141.568 27.243 141.55 27.207C141.514 27.189 141.496 27.189 141.46 27.207C141.424 27.243 141.442 27.315 141.496 27.423C141.676 28.737 141.676 29.547 141.496 29.871C141.334 30.123 141.208 30.285 141.1 30.357C140.542 30.663 140.002 30.699 139.498 30.465C139.354 30.411 139.264 30.285 139.246 30.105C139.21 29.925 139.228 29.763 139.264 29.583C139.264 29.385 139.228 28.971 139.156 28.323C139.084 27.693 139.048 27.279 139.048 27.099C139.066 24.651 139.12 22.977 139.21 22.041C139.246 21.681 139.444 21.483 139.822 21.465C140.038 21.465 140.272 21.447 140.506 21.411C140.83 21.375 141.028 21.375 141.1 21.411C141.172 21.465 141.208 21.555 141.244 21.699C141.262 21.843 141.28 21.951 141.316 21.987ZM129.58 24.417L127.816 24.273C127.816 23.517 127.816 23.067 127.834 22.923C127.834 22.887 127.888 22.833 127.996 22.779C128.104 22.725 128.194 22.689 128.266 22.689C128.482 22.689 128.824 22.707 129.292 22.725C129.76 22.761 130.12 22.761 130.372 22.761C131.038 22.743 131.848 22.671 132.82 22.545L130.462 22.419C130.426 22.257 130.426 22.041 130.426 21.753C130.426 21.465 130.408 21.231 130.39 21.033C131.182 20.907 131.596 20.835 131.668 20.835C132.136 20.799 132.622 20.763 133.09 20.745C133.486 20.745 133.774 20.817 133.936 20.961C134.08 21.105 134.17 21.393 134.188 21.789C134.224 21.897 134.224 21.969 134.206 22.041C134.17 22.113 134.17 22.149 134.17 22.167C134.17 22.203 134.152 22.221 134.098 22.257C134.044 22.293 133.99 22.311 133.954 22.311C133.918 22.311 133.828 22.347 133.702 22.383C133.576 22.419 133.45 22.473 133.342 22.527C134.638 22.725 135.358 22.833 135.538 22.851C135.772 22.887 135.916 22.995 135.97 23.193C136.15 23.859 135.916 24.309 135.304 24.543C135.286 24.561 135.142 24.615 134.854 24.723L135.106 24.885C135.646 25.173 135.934 25.551 135.97 25.983C136.006 26.415 135.79 26.829 135.322 27.207C134.836 27.603 134.224 27.819 133.468 27.837H133.378C133.63 27.945 134.242 28.035 135.178 28.071C136.114 28.107 136.618 28.143 136.708 28.161C136.96 28.233 137.086 28.287 137.122 28.287C137.374 28.377 137.536 28.467 137.608 28.575C137.68 28.683 137.716 28.881 137.716 29.133C137.77 29.601 137.77 29.907 137.698 30.033C137.626 30.177 137.464 30.231 137.212 30.231C136.294 30.339 134.26 30.357 131.092 30.285C130.75 30.285 129.634 30.321 127.744 30.357C127.366 30.375 127.096 30.267 126.916 30.015C126.736 29.781 126.7 29.457 126.772 29.061C126.772 28.971 126.79 28.863 126.808 28.755C126.808 28.683 126.808 28.647 126.826 28.611C126.844 28.593 126.916 28.557 127.024 28.485C127.06 28.449 127.114 28.431 127.15 28.413L130.606 27.999C130.642 27.909 130.678 27.801 130.732 27.657C130.444 27.603 130.156 27.513 129.904 27.405C129.4 27.225 128.986 26.937 128.698 26.577C128.428 26.289 128.338 25.965 128.428 25.587C128.5 25.209 128.752 24.885 129.166 24.633L129.58 24.417ZM131.236 25.569C131.218 25.821 131.254 26.001 131.326 26.091C131.398 26.199 131.56 26.253 131.812 26.289C132.136 26.361 132.424 26.361 132.694 26.289C132.766 26.289 132.838 26.235 132.91 26.163C132.982 26.091 133.036 26.001 133.054 25.929C133.054 25.893 133.036 25.821 132.982 25.731C132.91 25.659 132.856 25.587 132.784 25.551C132.532 25.443 132.37 25.371 132.262 25.335C132.154 25.299 131.992 25.281 131.794 25.299C131.578 25.317 131.398 25.407 131.236 25.569ZM129.634 31.635C129.724 31.545 130.228 31.491 131.164 31.491C131.272 31.491 131.38 31.509 131.506 31.527C131.65 31.563 131.812 31.581 132.01 31.581C132.1 31.581 132.244 31.581 132.424 31.563C132.604 31.563 132.73 31.545 132.82 31.545C132.91 31.545 133.036 31.563 133.216 31.563C133.396 31.581 133.522 31.581 133.612 31.581C133.918 31.581 134.242 31.563 134.584 31.527C134.908 31.491 135.286 31.419 135.682 31.347C136.078 31.275 136.402 31.239 136.618 31.203C136.87 31.167 137.14 31.149 137.446 31.149C137.716 31.149 138.184 31.185 138.832 31.221C139.48 31.257 139.894 31.275 140.074 31.275C140.128 31.275 140.164 31.311 140.2 31.347C140.344 31.635 140.434 31.851 140.488 32.013C140.524 32.193 140.56 32.409 140.596 32.697C140.614 33.003 140.632 33.237 140.632 33.399C140.632 33.687 140.614 33.957 140.596 34.209C140.578 34.479 140.56 34.785 140.524 35.145C140.488 35.505 140.47 35.775 140.47 35.937C140.434 36.135 140.308 36.477 140.056 36.963C139.984 37.107 139.876 37.233 139.75 37.305C139.606 37.377 139.498 37.431 139.408 37.431L139.012 37.485C138.796 37.503 138.634 37.521 138.544 37.539C138.418 37.575 138.238 37.593 137.986 37.629C137.734 37.665 137.572 37.683 137.464 37.701C137.392 37.719 137.32 37.719 137.284 37.719C137.032 37.719 136.906 37.575 136.906 37.269C136.87 36.009 136.852 35.127 136.852 34.605C136.834 34.209 136.654 34.011 136.33 34.011C136.294 34.011 136.258 34.029 136.222 34.029C136.042 34.047 135.772 34.083 135.448 34.155C135.124 34.227 134.908 34.263 134.818 34.263C134.728 34.281 134.548 34.317 134.26 34.353C133.972 34.407 133.738 34.443 133.54 34.461C133.342 34.497 133.144 34.497 132.964 34.497C132.496 34.497 131.542 34.443 130.12 34.317C130.048 34.317 129.958 34.281 129.868 34.227C129.778 34.173 129.742 34.119 129.742 34.065C129.688 33.849 129.634 33.579 129.598 33.255C129.562 32.931 129.526 32.607 129.526 32.247C129.508 31.905 129.544 31.707 129.634 31.635ZM150.568 30.609C149.218 30.645 147.994 30.357 146.878 29.709C146.194 29.331 145.726 28.701 145.51 27.801C145.222 26.721 145.186 25.857 145.402 25.173C145.51 24.813 145.69 24.471 145.924 24.147C146.374 23.535 146.77 23.067 147.112 22.743C147.616 22.275 148.282 22.095 149.074 22.185C150.1 22.329 151.198 22.743 152.35 23.427C152.998 23.823 153.394 24.399 153.538 25.191C153.736 26.451 153.754 27.477 153.574 28.251C153.394 29.025 153.052 29.619 152.53 30.051C152.008 30.483 151.36 30.681 150.568 30.609ZM148.606 26.757C148.822 27.477 148.966 27.891 149.02 27.963C149.056 28.035 149.11 28.125 149.2 28.197C149.29 28.269 149.362 28.305 149.434 28.287C149.83 28.251 150.172 28.161 150.442 27.981C150.694 27.801 150.874 27.567 150.946 27.261C151.018 26.955 150.946 26.595 150.73 26.163C150.406 25.515 149.902 25.299 149.218 25.497C148.822 25.623 148.624 26.037 148.606 26.757ZM160.594 21.105C160.594 21.267 160.594 21.573 160.594 22.005C160.576 22.437 160.576 22.725 160.612 22.869C160.72 23.697 160.63 25.569 160.36 28.467C160.324 28.683 160.288 29.205 160.234 30.015C160.162 30.843 160.126 31.383 160.108 31.635C160.072 31.923 159.91 32.067 159.622 32.067C159.478 32.067 159.082 32.067 158.398 32.067C157.714 32.067 157.264 32.049 157.066 32.049C156.85 32.049 156.724 31.887 156.67 31.563C156.526 30.843 156.526 29.655 156.67 27.999C156.688 27.837 156.724 26.649 156.76 24.435V23.085V21.717C156.76 21.537 156.868 21.393 157.084 21.285C157.21 21.231 157.372 21.177 157.57 21.141C157.768 21.105 158.002 21.069 158.29 21.033C158.578 21.015 158.794 20.997 158.938 20.997C159.082 20.997 159.334 20.979 159.676 20.961L160.18 20.943C160.216 20.943 160.288 20.979 160.414 21.015C160.522 21.051 160.594 21.087 160.594 21.105ZM152.116 34.029C154.564 33.885 155.95 33.813 156.256 33.777C156.562 33.759 156.922 33.723 157.354 33.687C157.786 33.651 158.146 33.615 158.434 33.579C158.722 33.543 158.974 33.525 159.154 33.525C159.388 33.525 159.568 33.831 159.676 34.407C159.694 34.533 159.712 34.785 159.712 35.145C159.712 35.559 159.604 35.973 159.388 36.405C159.316 36.531 159.154 36.621 158.902 36.657C158.65 36.693 157.804 36.747 156.364 36.819C154.924 36.891 154.078 36.945 153.808 36.981C153.736 36.999 153.682 36.999 153.61 36.999C153.304 36.999 152.656 37.017 151.666 37.035C150.676 37.053 149.956 37.071 149.506 37.089C149.398 37.089 149.2 37.107 148.948 37.125C148.696 37.143 148.498 37.143 148.372 37.143C147.958 37.143 147.616 37.071 147.364 36.909C147.274 36.873 147.202 36.783 147.13 36.675C147.058 36.567 147.04 36.477 147.04 36.369C146.986 35.847 146.95 35.109 146.914 34.137C146.878 33.165 146.842 32.499 146.824 32.121L146.806 31.869C146.806 31.689 146.806 31.527 146.806 31.347L146.788 31.095C146.824 31.095 146.914 31.077 147.076 31.041C147.238 31.005 147.346 30.969 147.4 30.951C147.526 30.933 147.814 30.915 148.264 30.915C148.786 30.915 149.11 30.951 149.254 30.987C149.398 31.041 149.47 31.131 149.47 31.257C149.47 31.311 149.488 31.437 149.524 31.617C149.56 31.797 149.596 31.923 149.596 31.977C149.596 32.175 149.632 32.535 149.74 33.075C149.74 33.147 149.758 33.309 149.794 33.543C149.812 33.777 149.848 33.975 149.902 34.155L152.116 34.029Z" fill="#818181"/>
<path d="M141.282 23.777C141.318 24.029 141.354 24.407 141.372 24.947C141.372 25.487 141.372 25.865 141.336 26.063C141.336 26.153 141.354 26.261 141.39 26.405C141.426 26.549 141.462 26.621 141.462 26.621C141.48 26.711 141.66 26.819 141.984 26.945C142.056 26.981 142.2 27.035 142.38 27.071C142.56 27.107 142.686 27.143 142.758 27.161C142.956 27.233 143.082 27.323 143.136 27.431C143.172 27.539 143.172 27.701 143.136 27.899C142.974 28.529 142.596 28.907 142.002 29.051C141.894 29.087 141.786 29.087 141.696 29.069C141.588 29.051 141.534 29.033 141.516 28.997C141.48 28.979 141.462 28.979 141.426 28.997C141.39 29.033 141.408 29.105 141.462 29.213C141.642 30.527 141.642 31.337 141.462 31.661C141.3 31.913 141.174 32.075 141.066 32.147C140.508 32.453 139.968 32.489 139.464 32.255C139.32 32.201 139.23 32.075 139.212 31.895C139.176 31.715 139.194 31.553 139.23 31.373C139.23 31.175 139.194 30.761 139.122 30.113C139.05 29.483 139.014 29.069 139.014 28.889C139.032 26.441 139.086 24.767 139.176 23.831C139.212 23.471 139.41 23.273 139.788 23.255C140.004 23.255 140.238 23.237 140.472 23.201C140.796 23.165 140.994 23.165 141.066 23.201C141.138 23.255 141.174 23.345 141.21 23.489C141.228 23.633 141.246 23.741 141.282 23.777ZM129.546 26.207L127.782 26.063C127.782 25.307 127.782 24.857 127.8 24.713C127.8 24.677 127.854 24.623 127.962 24.569C128.07 24.515 128.16 24.479 128.232 24.479C128.448 24.479 128.79 24.497 129.258 24.515C129.726 24.551 130.086 24.551 130.338 24.551C131.004 24.533 131.814 24.461 132.786 24.335L130.428 24.209C130.392 24.047 130.392 23.831 130.392 23.543C130.392 23.255 130.374 23.021 130.356 22.823C131.148 22.697 131.562 22.625 131.634 22.625C132.102 22.589 132.588 22.553 133.056 22.535C133.452 22.535 133.74 22.607 133.902 22.751C134.046 22.895 134.136 23.183 134.154 23.579C134.19 23.687 134.19 23.759 134.172 23.831C134.136 23.903 134.136 23.939 134.136 23.957C134.136 23.993 134.118 24.011 134.064 24.047C134.01 24.083 133.956 24.101 133.92 24.101C133.884 24.101 133.794 24.137 133.668 24.173C133.542 24.209 133.416 24.263 133.308 24.317C134.604 24.515 135.324 24.623 135.504 24.641C135.738 24.677 135.882 24.785 135.936 24.983C136.116 25.649 135.882 26.099 135.27 26.333C135.252 26.351 135.108 26.405 134.82 26.513L135.072 26.675C135.612 26.963 135.9 27.341 135.936 27.773C135.972 28.205 135.756 28.619 135.288 28.997C134.802 29.393 134.19 29.609 133.434 29.627H133.344C133.596 29.735 134.208 29.825 135.144 29.861C136.08 29.897 136.584 29.933 136.674 29.951C136.926 30.023 137.052 30.077 137.088 30.077C137.34 30.167 137.502 30.257 137.574 30.365C137.646 30.473 137.682 30.671 137.682 30.923C137.736 31.391 137.736 31.697 137.664 31.823C137.592 31.967 137.43 32.021 137.178 32.021C136.26 32.129 134.226 32.147 131.058 32.075C130.716 32.075 129.6 32.111 127.71 32.147C127.332 32.165 127.062 32.057 126.882 31.805C126.702 31.571 126.666 31.247 126.738 30.851C126.738 30.761 126.756 30.653 126.774 30.545C126.774 30.473 126.774 30.437 126.792 30.401C126.81 30.383 126.882 30.347 126.99 30.275C127.026 30.239 127.08 30.221 127.116 30.203L130.572 29.789C130.608 29.699 130.644 29.591 130.698 29.447C130.41 29.393 130.122 29.303 129.87 29.195C129.366 29.015 128.952 28.727 128.664 28.367C128.394 28.079 128.304 27.755 128.394 27.377C128.466 26.999 128.718 26.675 129.132 26.423L129.546 26.207ZM131.202 27.359C131.184 27.611 131.22 27.791 131.292 27.881C131.364 27.989 131.526 28.043 131.778 28.079C132.102 28.151 132.39 28.151 132.66 28.079C132.732 28.079 132.804 28.025 132.876 27.953C132.948 27.881 133.002 27.791 133.02 27.719C133.02 27.683 133.002 27.611 132.948 27.521C132.876 27.449 132.822 27.377 132.75 27.341C132.498 27.233 132.336 27.161 132.228 27.125C132.12 27.089 131.958 27.071 131.76 27.089C131.544 27.107 131.364 27.197 131.202 27.359ZM129.6 33.425C129.69 33.335 130.194 33.281 131.13 33.281C131.238 33.281 131.346 33.299 131.472 33.317C131.616 33.353 131.778 33.371 131.976 33.371C132.066 33.371 132.21 33.371 132.39 33.353C132.57 33.353 132.696 33.335 132.786 33.335C132.876 33.335 133.002 33.353 133.182 33.353C133.362 33.371 133.488 33.371 133.578 33.371C133.884 33.371 134.208 33.353 134.55 33.317C134.874 33.281 135.252 33.209 135.648 33.137C136.044 33.065 136.368 33.029 136.584 32.993C136.836 32.957 137.106 32.939 137.412 32.939C137.682 32.939 138.15 32.975 138.798 33.011C139.446 33.047 139.86 33.065 140.04 33.065C140.094 33.065 140.13 33.101 140.166 33.137C140.31 33.425 140.4 33.641 140.454 33.803C140.49 33.983 140.526 34.199 140.562 34.487C140.58 34.793 140.598 35.027 140.598 35.189C140.598 35.477 140.58 35.747 140.562 35.999C140.544 36.269 140.526 36.575 140.49 36.935C140.454 37.295 140.436 37.565 140.436 37.727C140.4 37.925 140.274 38.267 140.022 38.753C139.95 38.897 139.842 39.023 139.716 39.095C139.572 39.167 139.464 39.221 139.374 39.221L138.978 39.275C138.762 39.293 138.6 39.311 138.51 39.329C138.384 39.365 138.204 39.383 137.952 39.419C137.7 39.455 137.538 39.473 137.43 39.491C137.358 39.509 137.286 39.509 137.25 39.509C136.998 39.509 136.872 39.365 136.872 39.059C136.836 37.799 136.818 36.917 136.818 36.395C136.8 35.999 136.62 35.801 136.296 35.801C136.26 35.801 136.224 35.819 136.188 35.819C136.008 35.837 135.738 35.873 135.414 35.945C135.09 36.017 134.874 36.053 134.784 36.053C134.694 36.071 134.514 36.107 134.226 36.143C133.938 36.197 133.704 36.233 133.506 36.251C133.308 36.287 133.11 36.287 132.93 36.287C132.462 36.287 131.508 36.233 130.086 36.107C130.014 36.107 129.924 36.071 129.834 36.017C129.744 35.963 129.708 35.909 129.708 35.855C129.654 35.639 129.6 35.369 129.564 35.045C129.528 34.721 129.492 34.397 129.492 34.037C129.474 33.695 129.51 33.497 129.6 33.425ZM150.534 32.399C149.184 32.435 147.96 32.147 146.844 31.499C146.16 31.121 145.692 30.491 145.476 29.591C145.188 28.511 145.152 27.647 145.368 26.963C145.476 26.603 145.656 26.261 145.89 25.937C146.34 25.325 146.736 24.857 147.078 24.533C147.582 24.065 148.248 23.885 149.04 23.975C150.066 24.119 151.164 24.533 152.316 25.217C152.964 25.613 153.36 26.189 153.504 26.981C153.702 28.241 153.72 29.267 153.54 30.041C153.36 30.815 153.018 31.409 152.496 31.841C151.974 32.273 151.326 32.471 150.534 32.399ZM148.572 28.547C148.788 29.267 148.932 29.681 148.986 29.753C149.022 29.825 149.076 29.915 149.166 29.987C149.256 30.059 149.328 30.095 149.4 30.077C149.796 30.041 150.138 29.951 150.408 29.771C150.66 29.591 150.84 29.357 150.912 29.051C150.984 28.745 150.912 28.385 150.696 27.953C150.372 27.305 149.868 27.089 149.184 27.287C148.788 27.413 148.59 27.827 148.572 28.547ZM160.56 22.895C160.56 23.057 160.56 23.363 160.56 23.795C160.542 24.227 160.542 24.515 160.578 24.659C160.686 25.487 160.596 27.359 160.326 30.257C160.29 30.473 160.254 30.995 160.2 31.805C160.128 32.633 160.092 33.173 160.074 33.425C160.038 33.713 159.876 33.857 159.588 33.857C159.444 33.857 159.048 33.857 158.364 33.857C157.68 33.857 157.23 33.839 157.032 33.839C156.816 33.839 156.69 33.677 156.636 33.353C156.492 32.633 156.492 31.445 156.636 29.789C156.654 29.627 156.69 28.439 156.726 26.225V24.875V23.507C156.726 23.327 156.834 23.183 157.05 23.075C157.176 23.021 157.338 22.967 157.536 22.931C157.734 22.895 157.968 22.859 158.256 22.823C158.544 22.805 158.76 22.787 158.904 22.787C159.048 22.787 159.3 22.769 159.642 22.751L160.146 22.733C160.182 22.733 160.254 22.769 160.38 22.805C160.488 22.841 160.56 22.877 160.56 22.895ZM152.082 35.819C154.53 35.675 155.916 35.603 156.222 35.567C156.528 35.549 156.888 35.513 157.32 35.477C157.752 35.441 158.112 35.405 158.4 35.369C158.688 35.333 158.94 35.315 159.12 35.315C159.354 35.315 159.534 35.621 159.642 36.197C159.66 36.323 159.678 36.575 159.678 36.935C159.678 37.349 159.57 37.763 159.354 38.195C159.282 38.321 159.12 38.411 158.868 38.447C158.616 38.483 157.77 38.537 156.33 38.609C154.89 38.681 154.044 38.735 153.774 38.771C153.702 38.789 153.648 38.789 153.576 38.789C153.27 38.789 152.622 38.807 151.632 38.825C150.642 38.843 149.922 38.861 149.472 38.879C149.364 38.879 149.166 38.897 148.914 38.915C148.662 38.933 148.464 38.933 148.338 38.933C147.924 38.933 147.582 38.861 147.33 38.699C147.24 38.663 147.168 38.573 147.096 38.465C147.024 38.357 147.006 38.267 147.006 38.159C146.952 37.637 146.916 36.899 146.88 35.927C146.844 34.955 146.808 34.289 146.79 33.911L146.772 33.659C146.772 33.479 146.772 33.317 146.772 33.137L146.754 32.885C146.79 32.885 146.88 32.867 147.042 32.831C147.204 32.795 147.312 32.759 147.366 32.741C147.492 32.723 147.78 32.705 148.23 32.705C148.752 32.705 149.076 32.741 149.22 32.777C149.364 32.831 149.436 32.921 149.436 33.047C149.436 33.101 149.454 33.227 149.49 33.407C149.526 33.587 149.562 33.713 149.562 33.767C149.562 33.965 149.598 34.325 149.706 34.865C149.706 34.937 149.724 35.099 149.76 35.333C149.778 35.567 149.814 35.765 149.868 35.945L152.082 35.819Z" fill="white"/>
</g>
</svg>
