<svg width="19" height="20" viewBox="0 0 19 20" fill="none" xmlns="http://www.w3.org/2000/svg">
<path fill-rule="evenodd" clip-rule="evenodd" d="M2.10323 11.0749C2.10323 7.13984 5.2932 3.94987 9.22823 3.94987C13.1633 3.94987 16.3532 7.13984 16.3532 11.0749C16.3532 15.0099 13.1633 18.1999 9.22823 18.1999C5.2932 18.1999 2.10323 15.0099 2.10323 11.0749ZM3.29073 11.0749C3.29073 14.3541 5.94904 17.0124 9.22823 17.0124C10.803 17.0124 12.3132 16.3868 13.4267 15.2733C14.5402 14.1598 15.1657 12.6496 15.1657 11.0749C15.1657 7.79567 12.5074 5.13737 9.22823 5.13737C5.94904 5.13737 3.29073 7.79567 3.29073 11.0749Z" fill="#414141"/>
<path d="M7.36782 8.05862C7.13387 7.84062 6.76931 7.84706 6.5432 8.07316C6.31709 8.29927 6.31066 8.66384 6.52865 8.89778L8.63448 11.0036V14.2415C8.63448 14.5695 8.90031 14.8353 9.22823 14.8353C9.55615 14.8353 9.82198 14.5695 9.82198 14.2415V10.7582C9.82185 10.6008 9.7592 10.4499 9.64782 10.3386L7.36782 8.05862Z" fill="#414141"/>
<path d="M16.7728 5.13737C15.7954 3.83389 14.4972 2.80566 13.0045 2.15278C12.8588 2.08675 12.6926 2.08228 12.5436 2.1404C12.3946 2.19852 12.2753 2.3143 12.2128 2.46153C12.1445 2.60692 12.1388 2.774 12.1972 2.92367C12.2555 3.07335 12.3728 3.19248 12.5216 3.2532C13.8254 3.82687 14.9596 4.72659 15.8149 5.8657C15.927 6.01521 16.103 6.1032 16.2899 6.1032C16.4185 6.10378 16.5436 6.06205 16.6462 5.98445C16.778 5.89096 16.8661 5.74776 16.89 5.58789C16.9139 5.42803 16.8716 5.26534 16.7728 5.13737Z" fill="#414141"/>
<path d="M2.63365 5.84987C3.48895 4.71075 4.62314 3.81104 5.92698 3.23737C6.07572 3.17665 6.193 3.05752 6.25138 2.90784C6.30975 2.75816 6.30409 2.59108 6.23573 2.4457C6.17322 2.29847 6.05396 2.18268 5.90494 2.12456C5.75592 2.06645 5.58975 2.07091 5.44407 2.13695C3.95243 2.79542 2.65686 3.82915 1.68365 5.13737C1.51264 5.39228 1.56413 5.73551 1.8024 5.92903C1.9049 6.00663 2.03009 6.04836 2.15865 6.04778C2.33883 6.05741 2.51361 5.98459 2.63365 5.84987Z" fill="#414141"/>
</svg>
