<?xml version="1.0" standalone="no"?>
<!DOCTYPE svg PUBLIC "-//W3C//DTD SVG 20010904//EN"
 "http://www.w3.org/TR/2001/REC-SVG-20010904/DTD/svg10.dtd">
<svg version="1.0" xmlns="http://www.w3.org/2000/svg"
 width="73.000000pt" height="66.000000pt" viewBox="0 0 73.000000 66.000000"
 preserveAspectRatio="xMidYMid meet">

<g transform="translate(0.000000,66.000000) scale(0.100000,-0.100000)"
fill="#000000" stroke="none">
<path d="M215 640 c-3 -5 6 -21 22 -34 25 -22 28 -31 31 -102 4 -102 15 -125
22 -49 6 76 -6 144 -33 173 -22 24 -33 27 -42 12z"/>
<path d="M22 628 c-23 -23 -14 -58 18 -69 18 -7 27 -16 24 -22 -4 -7 2 -4 12
6 16 15 17 19 4 27 -8 5 -23 10 -32 10 -26 0 -32 19 -12 41 18 20 6 27 -14 7z"/>
<path d="M490 599 c0 -5 5 -7 10 -4 6 3 10 8 10 11 0 2 -4 4 -10 4 -5 0 -10
-5 -10 -11z"/>
<path d="M591 570 c-16 -14 -19 -20 -8 -20 26 0 47 12 47 26 0 19 -10 17 -39
-6z"/>
<path d="M524 555 c-7 -18 14 -75 27 -75 14 0 11 24 -6 46 -19 25 -19 32 3 37
16 4 16 5 -1 6 -10 0 -20 -6 -23 -14z"/>
<path d="M180 541 c0 -11 26 -22 34 -14 3 3 3 10 0 14 -7 12 -34 11 -34 0z"/>
<path d="M30 515 c-7 -9 -11 -17 -9 -20 3 -2 10 5 17 15 14 24 10 26 -8 5z"/>
<path d="M227 524 c-4 -4 -7 -14 -7 -23 0 -11 3 -12 11 -4 6 6 10 16 7 23 -2
6 -7 8 -11 4z"/>
<path d="M336 515 c-3 -8 -1 -15 4 -15 6 0 10 7 10 15 0 8 -2 15 -4 15 -2 0
-6 -7 -10 -15z"/>
<path d="M425 519 c-10 -15 1 -23 20 -15 9 3 13 10 10 16 -8 13 -22 13 -30 -1z"/>
<path d="M109 481 c13 -8 13 -13 1 -38 -24 -46 -24 -49 -6 -33 16 13 18 12 15
-5 -2 -11 4 -34 13 -51 18 -32 101 -114 117 -114 29 0 16 28 -43 92 -52 56
-66 79 -66 103 0 31 -15 55 -34 55 -6 0 -5 -4 3 -9z"/>
<path d="M391 354 c-25 -10 -32 -17 -23 -26 8 -8 23 -6 55 8 44 18 53 34 19
34 -9 -1 -32 -7 -51 -16z"/>
<path d="M46 325 c-7 -20 9 -28 23 -11 9 10 8 15 -3 19 -8 3 -17 -1 -20 -8z"/>
<path d="M60 240 c0 -50 69 -125 92 -102 8 8 -2 25 -31 58 -22 26 -41 51 -41
55 0 5 -4 9 -10 9 -5 0 -10 -9 -10 -20z"/>
<path d="M439 233 c-17 -15 -38 -27 -48 -28 -27 -2 -61 -16 -61 -24 0 -11 -76
-61 -94 -61 -7 0 -19 -7 -26 -15 -7 -8 -10 -15 -7 -15 7 0 280 141 290 150 5
4 1 10 -7 13 -9 4 -29 -5 -47 -20z"/>
<path d="M425 160 c3 -5 10 -10 16 -10 5 0 9 5 9 10 0 6 -7 10 -16 10 -8 0
-12 -4 -9 -10z"/>
<path d="M14 107 c-7 -20 21 -57 43 -57 19 0 16 11 -12 45 -21 25 -25 27 -31
12z"/>
</g>
</svg>
