<?xml version="1.0" standalone="no"?>
<!DOCTYPE svg PUBLIC "-//W3C//DTD SVG 20010904//EN"
 "http://www.w3.org/TR/2001/REC-SVG-20010904/DTD/svg10.dtd">
<svg version="1.0" xmlns="http://www.w3.org/2000/svg"
 width="66.000000pt" height="66.000000pt" viewBox="0 0 66.000000 66.000000"
 preserveAspectRatio="xMidYMid meet">

<g transform="translate(0.000000,66.000000) scale(0.100000,-0.100000)"
fill="#000000" stroke="none">
<path d="M137 612 c-20 -4 -24 -20 -32 -125 l-6 -78 28 14 c47 25 66 53 60 87
-8 38 7 39 45 3 l28 -27 28 25 c60 54 117 64 152 29 24 -24 25 -43 5 -60 -13
-11 -21 -10 -43 1 -15 7 -30 15 -34 17 -5 2 -8 -14 -8 -35 0 -37 2 -40 53 -62
57 -25 56 -27 -29 -50 -35 -9 -43 -16 -48 -42 -3 -17 -3 -41 0 -54 8 -33 -14
-41 -42 -14 -25 23 -38 21 -86 -13 -21 -15 -55 1 -50 23 6 24 -20 108 -39 125
-19 17 -19 15 -17 -107 l3 -124 53 -27 c91 -46 245 -47 337 -1 l30 15 -20 -21
c-12 -12 -54 -35 -95 -51 -50 -20 -63 -28 -40 -25 72 12 121 28 143 49 22 21
24 29 21 112 -6 171 -23 397 -31 405 -8 7 -334 17 -366 11z m93 -42 c11 -7 5
-10 -23 -10 -23 0 -36 4 -32 10 8 13 35 13 55 0z"/>
</g>
</svg>
