<svg width="57" height="60" viewBox="0 0 57 60" fill="none" xmlns="http://www.w3.org/2000/svg">
<path d="M49.6757 27.3935C50.6453 25.5791 51.1973 23.5055 51.1973 21.3023C51.1973 14.1263 45.3797 8.3087 38.2037 8.3087C36.9845 8.3087 35.8085 8.4767 34.6901 8.7935C32.3381 4.9583 28.0997 2.3999 23.2661 2.3999C15.8597 2.3999 9.85972 8.4095 9.85972 15.8159C9.85972 17.5055 10.1717 19.1231 10.7477 20.6111C4.97812 21.8543 0.65332 26.9951 0.65332 33.1439C0.65332 37.0655 2.41492 40.5839 5.19412 42.9311C5.06932 43.6271 5.00212 44.3471 5.00212 45.0815C5.00212 51.9359 10.5605 57.4895 17.4101 57.4895C19.3637 57.4895 21.2069 57.0383 22.8485 56.2367C24.6869 58.5311 27.5189 59.9999 30.6869 59.9999C34.6037 59.9999 38.0021 57.7631 39.6629 54.4847C40.3685 54.5951 41.0981 54.6479 41.8421 54.6479C49.9925 54.6479 56.6021 48.0431 56.6021 39.8879C56.6021 34.6175 53.8373 29.9855 49.6709 27.3839L49.6757 27.3935Z" fill="#578246"/>
<path d="M49.6757 24.9936C50.6453 23.1792 51.1973 21.1056 51.1973 18.9024C51.1973 11.7264 45.3797 5.9088 38.2037 5.9088C36.9845 5.9088 35.8085 6.0768 34.6901 6.3936C32.3381 2.5584 28.0997 0 23.2661 0C15.8597 0 9.85972 6.0096 9.85972 13.416C9.85972 15.1056 10.1717 16.7232 10.7477 18.2112C4.97812 19.4544 0.65332 24.5952 0.65332 30.744C0.65332 34.6656 2.41492 38.184 5.19412 40.5312C5.06932 41.2272 5.00212 41.9472 5.00212 42.6816C5.00212 49.536 10.5605 55.0896 17.4101 55.0896C19.3637 55.0896 21.2069 54.6384 22.8485 53.8368C24.6869 56.1312 27.5189 57.6 30.6869 57.6C34.6037 57.6 38.0021 55.3632 39.6629 52.0848C40.3685 52.1952 41.0981 52.248 41.8421 52.248C49.9925 52.248 56.6021 45.6432 56.6021 37.488C56.6021 32.2176 53.8373 27.5856 49.6709 24.984L49.6757 24.9936Z" fill="#99C08E"/>
<path d="M20.5498 36.811C20.4106 36.811 20.2138 36.8206 19.9642 36.8446C19.7098 36.8686 19.5274 36.8782 19.4122 36.8782C18.9754 36.8782 18.6586 36.763 18.4618 36.5326C18.265 36.3022 18.169 35.9326 18.169 35.4286C18.169 35.2894 18.2506 34.5646 18.409 33.2494C20.0218 32.7214 21.601 32.4526 23.1418 32.4526C23.257 32.4526 23.4298 32.4574 23.6602 32.4718C23.8906 32.4814 24.073 32.491 24.2122 32.491L26.6314 32.3518C26.5402 32.1454 26.4874 31.8622 26.4778 31.507C26.4682 31.1518 26.425 30.8734 26.3578 30.6766C26.2906 30.4798 26.137 30.3694 25.9066 30.3502C25.561 30.283 24.145 30.2158 21.6538 30.1582C19.1674 30.1006 17.713 30.0958 17.3002 30.139C16.7722 30.2302 16.3162 30.259 15.937 30.2254C15.5578 30.1918 15.2746 29.9422 15.0922 29.4814C14.7466 28.723 14.641 27.8686 14.7802 26.923C14.8282 26.6926 15.0202 26.4622 15.3658 26.2318C15.7114 26.0014 16.5178 25.819 17.785 25.6798C19.0522 25.5406 19.9498 25.5166 20.4826 25.6126H24.8218C25.6378 25.6126 26.209 25.603 26.5306 25.579C30.769 25.531 33.2122 25.5118 33.8554 25.5118C34.4986 25.5118 35.905 25.5694 38.0698 25.6846C40.2346 25.7998 41.377 25.8574 41.4922 25.8574C41.6074 25.8574 41.8138 25.891 42.1162 25.963C42.601 26.0782 42.9274 26.2462 43.1002 26.4622C43.273 26.683 43.3258 27.0334 43.2538 27.5182C43.2298 27.7006 43.2058 27.8638 43.1866 28.003C43.1626 28.1422 43.1386 28.267 43.1194 28.3822C43.0954 28.4974 43.0522 28.5934 42.9802 28.675C42.913 28.7566 42.865 28.8286 42.841 28.9006C42.817 28.9726 42.7498 29.035 42.6346 29.0926C42.5194 29.1502 42.433 29.1982 42.3754 29.2318C42.3178 29.2654 42.2026 29.3086 42.0298 29.3518C41.857 29.3998 41.7322 29.4334 41.6506 29.4574C41.569 29.4814 41.401 29.5246 41.1514 29.5966C40.897 29.6638 40.7002 29.7118 40.5658 29.7358C40.3114 29.803 38.8378 29.8798 36.1402 29.9614C33.4426 30.043 31.9594 30.1294 31.681 30.2206C31.5898 30.2446 31.537 30.3454 31.5274 30.5326C31.5178 30.715 31.5178 30.9118 31.5274 31.1182C31.537 31.3246 31.5322 31.5454 31.5082 31.7758C31.5082 31.843 31.5178 31.9486 31.5418 32.0878C31.5658 32.227 31.5754 32.3182 31.5754 32.3662C33.9274 32.4142 35.9434 32.4574 37.6234 32.5054C38.0602 32.5294 38.4634 32.6206 38.833 32.7838C38.9722 32.8318 39.0922 32.923 39.1978 33.0622C39.3034 33.2014 39.3514 33.3262 39.3514 33.4414V33.9262C39.3514 34.5934 39.2506 35.1358 39.0586 35.5486C38.8618 35.9614 38.4538 36.2734 37.8298 36.4798C37.7146 36.5278 37.3498 36.5566 36.7402 36.5662C36.1306 36.5758 35.569 36.6046 35.065 36.6526C34.5562 36.7006 34.3066 36.7918 34.3066 36.931C34.2826 37.0462 34.2922 37.2286 34.3402 37.483C34.3882 37.7374 34.4074 37.9198 34.4074 38.035C34.4074 38.059 34.417 38.2558 34.441 38.6206C34.465 38.9902 34.4746 39.2302 34.4746 39.3454L38.7946 39.6238C38.7706 39.9214 38.7562 40.5262 38.7418 41.4382C38.7274 42.3502 38.6554 43.0558 38.5162 43.5646C38.4922 43.6558 38.4106 43.7614 38.2762 43.8766C38.137 43.9918 38.0218 44.0494 37.9306 44.0494C37.609 44.0734 36.2698 44.083 33.9226 44.083C33.3898 44.083 32.6218 44.0734 31.609 44.0494C30.5962 44.0254 29.8234 44.0158 29.2954 44.0158C28.441 44.0158 27.1594 44.0206 25.441 44.035C23.7226 44.0446 22.441 44.0542 21.5866 44.0542H18.7882C18.4666 44.0542 18.217 43.963 18.0442 43.7758C17.8714 43.5934 17.785 43.3486 17.785 43.051C17.785 42.9598 17.7946 42.8542 17.8186 42.739C17.8186 42.6718 17.8378 42.4318 17.8714 42.0286C17.905 41.6254 17.9578 41.3326 18.025 41.1454C18.2074 40.7326 18.529 40.4542 18.9946 40.315C19.4074 40.1758 20.0026 40.027 20.7754 39.8638C21.5482 39.7006 22.0042 39.6094 22.1386 39.5854C22.4602 39.5182 22.6954 39.4462 22.849 39.379C22.9978 39.3118 23.1562 39.1822 23.3146 38.9998C23.473 38.8174 23.5546 38.5726 23.5546 38.275C23.5546 38.1118 23.5786 37.939 23.6218 37.7566C23.6698 37.5742 23.7322 37.3582 23.8138 37.1182C23.8954 36.8782 23.9482 36.7102 23.9674 36.619C23.5306 36.7342 23.3002 36.7918 23.2762 36.7918C22.585 36.8158 21.9418 36.8254 21.3418 36.8254H20.545L20.5498 36.811ZM25.4218 12.4126C27.9562 12.2302 29.3818 12.1246 29.7082 12.1006C30.2362 12.1006 30.8266 12.283 31.4698 12.6526C31.609 12.7198 31.7338 12.8638 31.849 13.0846C31.9642 13.3054 32.0218 13.507 32.0218 13.6894C31.9978 15.1198 32.1706 16.3966 32.5402 17.5246C32.6074 17.755 33.169 18.1198 34.2154 18.6142C35.2618 19.1086 36.0058 19.4158 36.4426 19.531C37.8922 19.9246 39.7258 20.4766 41.9386 21.1918C42.3082 21.307 42.5674 21.4558 42.7162 21.643C42.865 21.8254 42.8602 22.1038 42.697 22.4734C42.6298 22.6558 42.5626 22.795 42.505 22.8862C42.4474 22.9774 42.3994 23.0638 42.3658 23.1454C42.3322 23.227 42.2794 23.371 42.2122 23.5774C42.1642 23.8078 42.1162 24.0574 42.0586 24.3214C42.001 24.5854 41.9722 24.7486 41.9722 24.8062C41.9722 24.8638 41.9146 24.9406 41.7994 25.0318C41.6842 25.123 41.5738 25.1758 41.473 25.1854C41.3674 25.195 41.1562 25.2238 40.8346 25.2718C40.6954 25.2958 40.3066 25.3726 39.6586 25.4974C39.0154 25.6222 38.5306 25.6894 38.209 25.6894C37.7242 25.6894 37.2298 25.4926 36.721 25.1038C36.4666 24.8734 35.1418 24.1726 32.7466 22.9966C30.3514 21.8206 28.7242 21.0382 27.8746 20.6446C27.4378 20.4622 26.9434 20.4958 26.3866 20.7502C25.3018 21.211 23.9914 21.8686 22.4458 22.7182C21.7306 23.1118 20.929 23.467 20.0458 23.7886C19.1578 24.1102 18.4138 24.2494 17.8186 24.2014C17.3578 24.1534 17.0458 24.0622 16.8874 23.923C16.7242 23.7838 16.609 23.4862 16.5418 23.0254C16.4746 22.6318 16.369 22.2286 16.2298 21.8158C16.1146 21.4222 16.0474 21.1198 16.0234 20.899C15.9994 20.6782 16.0762 20.4718 16.249 20.275C16.4218 20.0782 16.5898 19.9342 16.7482 19.843C16.9066 19.7518 17.233 19.5886 17.7178 19.3582C18.457 18.9646 19.6954 18.3742 21.433 17.5774C23.1706 16.7806 24.217 16.3054 24.5626 16.1422C24.9562 15.9598 25.2202 15.7102 25.3594 15.3982C25.4986 15.0862 25.5802 14.6878 25.5994 14.2078C25.5994 14.1406 25.5418 13.5406 25.4266 12.4126H25.4218ZM27.4954 39.0574C27.4954 39.403 27.6778 39.5758 28.0474 39.5758H28.1866C28.345 39.5758 28.7002 39.5518 29.2426 39.5086C29.785 39.4606 30.2026 39.427 30.505 39.403C30.5722 39.379 30.6586 39.3358 30.7642 39.2638C30.8698 39.1966 30.9178 39.139 30.9178 39.091C30.9418 38.6542 30.9514 38.227 30.9514 37.8142C30.9514 37.2862 30.9418 36.7534 30.9178 36.2254C30.9178 36.1774 30.8554 36.1198 30.7258 36.0526C30.601 35.9854 30.4906 35.947 30.3994 35.947H30.3658C30.1354 35.971 29.3146 36.0862 27.913 36.2926C27.6586 37.8574 27.5194 38.7214 27.5002 38.8846V39.0574H27.4954Z" fill="#578246"/>
<path d="M20.6787 38.7309C20.5395 38.7309 20.3427 38.7405 20.0931 38.7645C19.8387 38.7885 19.6563 38.7981 19.5411 38.7981C19.1043 38.7981 18.7875 38.6829 18.5907 38.4525C18.3939 38.2221 18.2979 37.8525 18.2979 37.3485C18.2979 37.2093 18.3795 36.4845 18.5379 35.1693C20.1507 34.6413 21.7299 34.3725 23.2707 34.3725C23.3859 34.3725 23.5587 34.3773 23.7891 34.3917C24.0195 34.4013 24.2019 34.4109 24.3411 34.4109L26.7603 34.2717C26.6691 34.0653 26.6163 33.7821 26.6067 33.4269C26.5923 33.0717 26.5539 32.7933 26.4867 32.5965C26.4195 32.3997 26.2659 32.2893 26.0355 32.2701C25.6899 32.2029 24.2739 32.1357 21.7827 32.0781C19.2963 32.0205 17.8419 32.0157 17.4291 32.0589C16.9011 32.1501 16.4451 32.1789 16.0659 32.1453C15.6867 32.1117 15.4035 31.8621 15.2211 31.4013C14.8755 30.6429 14.7699 29.7885 14.9091 28.8429C14.9571 28.6125 15.1491 28.3821 15.4947 28.1517C15.8403 27.9213 16.6467 27.7389 17.9139 27.5997C19.1811 27.4605 20.0787 27.4365 20.6115 27.5325H24.9507C25.7667 27.5325 26.3379 27.5229 26.6595 27.4989C30.8979 27.4509 33.3411 27.4317 33.9843 27.4317C34.6275 27.4317 36.0339 27.4893 38.1987 27.6045C40.3635 27.7197 41.5059 27.7773 41.6211 27.7773C41.7363 27.7773 41.9427 27.8109 42.2451 27.8829C42.7299 27.9981 43.0563 28.1661 43.2291 28.3821C43.4019 28.6029 43.4547 28.9533 43.3827 29.4381C43.3587 29.6205 43.3347 29.7837 43.3155 29.9229C43.2915 30.0621 43.2675 30.1869 43.2483 30.3021C43.2243 30.4173 43.1811 30.5133 43.1091 30.5949C43.0419 30.6765 42.9939 30.7485 42.9699 30.8205C42.9459 30.8877 42.8787 30.9549 42.7635 31.0125C42.6483 31.0701 42.5619 31.1181 42.5043 31.1517C42.4467 31.1853 42.3315 31.2285 42.1587 31.2717C41.9859 31.3197 41.8611 31.3533 41.7795 31.3773C41.6979 31.4013 41.5299 31.4445 41.2803 31.5165C41.0307 31.5885 40.8291 31.6317 40.6947 31.6557C40.4403 31.7229 38.9667 31.7997 36.2691 31.8813C33.5715 31.9629 32.0883 32.0493 31.8099 32.1405C31.7187 32.1645 31.6659 32.2653 31.6563 32.4525C31.6467 32.6349 31.6467 32.8317 31.6563 33.0381C31.6659 33.2445 31.6611 33.4653 31.6371 33.6957C31.6371 33.7629 31.6467 33.8685 31.6707 34.0077C31.6947 34.1469 31.7043 34.2381 31.7043 34.2861C34.0563 34.3341 36.0723 34.3773 37.7523 34.4253C38.1891 34.4493 38.5923 34.5405 38.9619 34.7037C39.1011 34.7517 39.2211 34.8429 39.3267 34.9821C39.4323 35.1213 39.4803 35.2461 39.4803 35.3613V35.8461C39.4803 36.5133 39.3843 37.0557 39.1875 37.4685C38.9907 37.8813 38.5827 38.1933 37.9587 38.3997C37.8435 38.4477 37.4787 38.4765 36.8691 38.4861C36.2595 38.4957 35.6979 38.5245 35.1939 38.5725C34.6851 38.6205 34.4355 38.7117 34.4355 38.8509C34.4115 38.9661 34.4259 39.1485 34.4691 39.4029C34.5171 39.6573 34.5363 39.8397 34.5363 39.9549C34.5363 39.9789 34.5459 40.1757 34.5699 40.5405C34.5939 40.9101 34.6035 41.1501 34.6035 41.2653L38.9235 41.5437C38.8995 41.8413 38.8851 42.4461 38.8707 43.3581C38.8611 44.2701 38.7843 44.9757 38.6451 45.4845C38.6211 45.5757 38.5395 45.6813 38.4051 45.7965C38.2659 45.9117 38.1507 45.9693 38.0595 45.9693C37.7379 45.9933 36.3987 46.0029 34.0515 46.0029C33.5235 46.0029 32.7507 45.9933 31.7379 45.9693C30.7251 45.9453 29.9523 45.9357 29.4243 45.9357C28.5699 45.9357 27.2883 45.9405 25.5699 45.9549C23.8515 45.9645 22.5699 45.9741 21.7155 45.9741H18.9171C18.5955 45.9741 18.3459 45.8829 18.1731 45.6957C18.0003 45.5133 17.9139 45.2685 17.9139 44.9709C17.9139 44.8797 17.9235 44.7741 17.9475 44.6589C17.9475 44.5917 17.9667 44.3517 18.0003 43.9485C18.0339 43.5453 18.0867 43.2525 18.1539 43.0653C18.3363 42.6525 18.6627 42.3741 19.1235 42.2349C19.5363 42.0957 20.1315 41.9469 20.9043 41.7837C21.6771 41.6205 22.1331 41.5293 22.2675 41.5053C22.5891 41.4381 22.8243 41.3661 22.9779 41.2989C23.1267 41.2317 23.2851 41.1021 23.4435 40.9197C23.6019 40.7373 23.6835 40.4925 23.6835 40.1949C23.6835 40.0317 23.7075 39.8589 23.7507 39.6765C23.7987 39.4941 23.8611 39.2781 23.9427 39.0381C24.0243 38.7981 24.0771 38.6301 24.0963 38.5389C23.6595 38.6541 23.4291 38.7117 23.4051 38.7117C22.7139 38.7357 22.0707 38.7453 21.4707 38.7453H20.6739L20.6787 38.7309ZM25.5507 14.3325C28.0851 14.1501 29.5107 14.0445 29.8371 14.0205C30.3651 14.0205 30.9555 14.2029 31.5987 14.5725C31.7379 14.6397 31.8627 14.7837 31.9779 15.0045C32.0931 15.2253 32.1507 15.4269 32.1507 15.6093C32.1267 17.0397 32.2995 18.3165 32.6691 19.4445C32.7363 19.6749 33.2979 20.0397 34.3443 20.5341C35.3907 21.0285 36.1347 21.3357 36.5715 21.4509C38.0211 21.8445 39.8547 22.3965 42.0675 23.1117C42.4371 23.2269 42.6963 23.3757 42.8451 23.5629C42.9939 23.7453 42.9891 24.0237 42.8259 24.3933C42.7587 24.5757 42.6915 24.7149 42.6339 24.8061C42.5763 24.8973 42.5283 24.9837 42.4947 25.0653C42.4611 25.1469 42.4083 25.2909 42.3411 25.4973C42.2931 25.7277 42.2403 25.9773 42.1875 26.2413C42.1299 26.5053 42.1011 26.6685 42.1011 26.7261C42.1011 26.7837 42.0435 26.8605 41.9283 26.9517C41.8131 27.0429 41.7027 27.0957 41.6019 27.1053C41.4963 27.1149 41.2851 27.1437 40.9635 27.1917C40.8243 27.2157 40.4307 27.2925 39.7875 27.4173C39.1443 27.5421 38.6595 27.6093 38.3379 27.6093C37.8531 27.6093 37.3587 27.4125 36.8499 27.0237C36.5955 26.7933 35.2707 26.0925 32.8755 24.9165C30.4803 23.7405 28.8531 22.9581 28.0035 22.5645C27.5667 22.3821 27.0723 22.4157 26.5155 22.6701C25.4307 23.1309 24.1203 23.7885 22.5747 24.6381C21.8595 25.0317 21.0579 25.3869 20.1747 25.7085C19.2867 26.0301 18.5427 26.1693 17.9475 26.1213C17.4867 26.0733 17.1747 25.9821 17.0163 25.8429C16.8531 25.7037 16.7379 25.4061 16.6707 24.9453C16.6035 24.5517 16.4979 24.1485 16.3587 23.7357C16.2435 23.3421 16.1763 23.0397 16.1523 22.8189C16.1283 22.5981 16.2051 22.3917 16.3779 22.1949C16.5507 21.9981 16.7187 21.8541 16.8771 21.7629C17.0403 21.6717 17.3619 21.5085 17.8467 21.2781C18.5859 20.8845 19.8243 20.2941 21.5619 19.4973C23.2995 18.7005 24.3459 18.2253 24.6915 18.0621C25.0851 17.8797 25.3491 17.6301 25.4883 17.3181C25.6275 17.0061 25.7091 16.6077 25.7283 16.1277C25.7283 16.0605 25.6707 15.4605 25.5555 14.3325H25.5507ZM27.6243 40.9773C27.6243 41.3229 27.8067 41.4957 28.1763 41.4957H28.3155C28.4787 41.4957 28.8291 41.4717 29.3715 41.4285C29.9139 41.3805 30.3315 41.3469 30.6339 41.3229C30.7011 41.2989 30.7875 41.2557 30.8931 41.1837C30.9987 41.1117 31.0467 41.0589 31.0467 41.0109C31.0707 40.5741 31.0803 40.1469 31.0803 39.7341C31.0803 39.2061 31.0707 38.6733 31.0467 38.1453C31.0467 38.0973 30.9843 38.0397 30.8547 37.9725C30.7251 37.9053 30.6195 37.8669 30.5283 37.8669H30.4947C30.2643 37.8909 29.4483 38.0061 28.0419 38.2125C27.7875 39.7773 27.6483 40.6413 27.6291 40.8045V40.9773H27.6243Z" fill="white"/>
</svg>
